{"glyphs":{"0":{"ha":664,"x_min":61,"x_max":603,"o":"m 339 -14 q 203 14 267 -14 q 100 97 139 42 q 61 229 61 151 l 61 688 q 99 820 61 765 q 201 903 138 875 q 338 931 264 931 q 470 903 410 931 q 567 820 531 875 q 603 688 603 765 l 603 229 q 567 97 603 151 q 470 14 531 42 q 339 -14 410 -14 m 183 243 q 224 146 183 185 q 339 107 264 107 q 440 142 400 107 q 481 239 481 176 l 481 399 l 183 397 l 183 243 m 481 519 l 481 678 q 443 774 481 739 q 338 810 406 810 q 226 776 268 810 q 183 675 183 742 l 183 519 l 481 519 z "},"1":{"ha":336,"x_min":61,"x_max":275,"o":"m 154 757 l 63 732 l 61 856 l 275 917 l 275 0 l 154 0 l 154 757 z "},"2":{"ha":650,"x_min":61,"x_max":589,"o":"m 82 204 q 145 383 82 319 q 342 476 208 447 q 440 530 413 492 q 467 649 467 568 l 467 686 q 431 781 467 751 q 325 810 396 810 q 223 778 263 810 q 183 682 183 746 l 183 603 l 61 603 l 61 688 q 97 820 61 765 q 194 903 133 875 q 325 931 254 931 q 515 872 442 931 q 589 696 589 813 l 589 636 q 531 450 589 522 q 367 357 472 378 q 266 324 301 344 q 217 276 231 304 q 204 201 204 247 l 204 121 l 561 121 l 561 0 l 82 0 l 82 204 z "},"3":{"ha":663,"x_min":61,"x_max":603,"o":"m 339 -12 q 199 17 263 -12 q 98 101 135 46 q 61 229 61 156 l 61 313 l 183 313 l 183 238 q 226 144 183 179 q 338 108 269 108 q 442 141 406 108 q 479 228 479 174 l 479 267 q 447 363 479 331 q 357 394 414 394 l 333 394 l 333 503 l 358 503 q 447 532 414 500 q 479 625 479 564 l 479 660 q 442 746 479 714 q 338 778 406 778 q 223 744 263 778 q 183 650 183 711 l 183 589 l 61 589 l 61 657 q 138 834 61 768 q 339 900 214 900 q 526 839 451 900 q 601 676 600 778 l 601 625 q 511 442 603 492 q 577 376 551 422 q 601 268 603 329 l 601 217 q 565 97 600 149 q 472 16 531 44 q 339 -12 413 -12 z "},"4":{"ha":807,"x_min":61,"x_max":746,"o":"m 467 257 l 61 257 l 435 917 l 569 917 l 261 379 l 468 379 l 468 508 l 590 508 l 590 379 l 746 379 l 746 257 l 589 257 l 589 0 l 467 0 l 467 257 z "},"5":{"ha":643,"x_min":61,"x_max":582,"o":"m 319 -12 q 131 50 201 -12 q 61 229 61 113 l 61 296 l 183 296 l 183 240 q 220 142 183 175 q 322 108 257 108 q 460 256 460 108 l 460 351 q 421 460 460 422 q 307 497 382 497 l 75 496 l 75 917 l 556 917 l 556 794 l 197 796 l 197 607 l 314 607 q 506 544 429 607 q 582 368 582 481 l 582 247 q 509 57 582 126 q 319 -12 436 -12 z "},"6":{"ha":696,"x_min":61,"x_max":603,"o":"m 339 -12 q 204 15 268 -12 q 101 97 140 43 q 61 229 61 151 l 61 686 q 101 819 61 764 q 203 901 140 874 q 339 928 267 928 q 469 901 408 928 q 566 819 529 874 q 603 686 603 764 l 603 613 l 481 613 l 481 679 q 439 774 481 742 q 336 807 397 807 q 226 774 269 807 q 183 676 183 742 l 183 504 q 252 546 211 532 q 339 560 293 560 q 526 501 450 560 q 603 329 603 443 l 603 229 q 566 97 603 151 q 469 15 529 42 q 339 -12 408 -12 m 183 244 q 226 143 183 178 q 338 108 269 108 q 439 142 397 108 q 481 240 481 176 l 481 324 q 440 420 481 386 q 338 454 399 454 q 226 420 268 454 q 183 319 183 386 l 183 244 z "},"7":{"ha":671,"x_min":61,"x_max":608,"o":"m 474 794 l 61 794 l 61 917 l 608 917 l 608 808 l 313 0 l 186 0 l 474 794 z "},"8":{"ha":664,"x_min":61,"x_max":603,"o":"m 339 -12 q 137 50 213 -12 q 61 229 61 113 l 61 268 q 156 450 61 394 q 61 632 61 506 l 61 678 q 138 857 61 794 q 336 919 214 919 q 532 858 461 919 q 603 678 603 796 l 603 632 q 514 449 603 507 q 603 268 603 393 l 603 229 q 533 49 603 111 q 339 -12 463 -12 m 183 238 q 222 140 183 171 q 338 108 260 108 q 444 140 407 108 q 481 233 481 171 l 481 264 q 336 389 481 389 q 221 358 258 389 q 183 261 183 328 l 183 238 m 183 640 q 338 510 183 510 q 481 638 481 510 l 481 671 q 444 767 481 735 q 336 799 407 799 q 223 766 263 799 q 183 668 183 733 l 183 640 z "},"9":{"ha":696,"x_min":93,"x_max":635,"o":"m 357 928 q 492 900 428 928 q 595 818 556 872 q 635 686 635 764 l 635 229 q 595 97 635 151 q 492 15 556 42 q 357 -12 429 -12 q 227 15 288 -12 q 130 97 167 42 q 93 229 93 151 l 93 303 l 215 303 l 215 236 q 257 141 215 174 q 360 108 299 108 q 469 141 426 108 q 513 239 513 174 l 513 411 q 444 369 485 383 q 357 356 403 356 q 169 414 246 356 q 93 586 93 472 l 93 686 q 130 819 93 764 q 227 901 167 874 q 357 928 288 928 m 215 592 q 256 495 215 529 q 358 461 297 461 q 470 495 428 461 q 513 596 513 529 l 513 671 q 469 772 513 738 q 358 807 426 807 q 257 773 299 807 q 215 675 215 739 l 215 592 z "}," ":{"ha":486,"x_min":0,"x_max":0,"o":""},"A":{"ha":726,"x_min":61,"x_max":665,"o":"m 279 917 l 454 917 l 665 0 l 531 0 l 468 274 l 258 274 l 196 0 l 61 0 l 279 917 m 457 394 l 379 771 l 350 771 l 269 394 l 457 394 z "},"B":{"ha":622,"x_min":61,"x_max":561,"o":"m 61 917 l 303 915 q 482 843 419 915 q 544 653 544 771 q 522 546 544 597 q 457 468 499 494 q 534 384 507 442 q 561 256 561 326 q 533 129 561 188 q 451 35 506 71 q 318 0 396 0 l 61 0 l 61 917 m 313 106 q 401 146 372 106 q 429 256 429 186 q 401 373 429 336 q 310 410 372 410 l 194 410 l 194 107 l 313 106 m 300 511 q 389 551 360 511 q 418 658 418 590 q 390 774 418 738 q 299 810 361 810 l 194 810 l 194 513 l 300 511 z "},"C":{"ha":663,"x_min":61,"x_max":601,"o":"m 339 -14 q 210 14 274 -14 q 103 97 146 42 q 61 229 61 151 l 61 688 q 103 820 61 765 q 210 903 146 875 q 339 931 274 931 q 463 903 403 931 q 563 820 524 875 q 601 688 601 765 l 601 574 l 467 574 l 467 706 q 426 794 467 763 q 336 825 386 825 q 240 794 282 825 q 197 704 197 763 l 197 214 q 239 123 197 154 q 336 92 281 92 q 425 123 385 92 q 465 211 465 154 l 465 349 l 600 349 l 600 229 q 561 97 600 151 q 462 14 522 42 q 339 -14 401 -14 z "},"D":{"ha":658,"x_min":61,"x_max":596,"o":"m 61 917 l 319 917 q 449 889 385 917 q 554 806 513 861 q 596 674 596 751 l 596 243 q 554 110 596 165 q 449 28 513 56 q 319 0 385 0 l 61 0 l 61 917 m 315 106 q 415 140 372 106 q 458 239 458 175 l 458 679 q 416 777 458 743 q 315 811 374 811 l 194 811 l 194 107 l 315 106 z "},"E":{"ha":567,"x_min":61,"x_max":506,"o":"m 61 917 l 506 917 l 506 778 l 172 778 l 172 524 l 490 524 l 490 393 l 172 393 l 172 135 l 506 135 l 506 0 l 61 0 l 61 917 z "},"F":{"ha":567,"x_min":61,"x_max":506,"o":"m 61 917 l 506 917 l 506 781 l 193 781 l 193 524 l 490 524 l 490 393 l 193 393 l 193 0 l 61 0 l 61 917 z "},"G":{"ha":663,"x_min":61,"x_max":601,"o":"m 313 -11 q 191 16 249 -11 q 97 97 133 43 q 61 229 61 151 l 61 688 q 101 820 61 765 q 204 903 140 875 q 339 931 268 931 q 468 903 408 931 q 565 820 528 875 q 601 688 601 765 l 601 603 l 467 603 l 467 703 q 428 794 467 763 q 336 825 390 825 q 236 794 276 825 q 196 701 196 763 l 196 221 q 238 129 196 161 q 336 97 281 97 q 426 128 386 97 q 467 218 467 160 l 467 385 l 396 385 l 396 506 l 601 506 l 601 0 l 483 0 l 483 81 q 313 -11 431 -11 z "},"H":{"ha":644,"x_min":61,"x_max":583,"o":"m 61 917 l 194 917 l 194 522 l 451 522 l 451 917 l 583 917 l 583 0 l 451 0 l 451 400 l 194 400 l 194 0 l 61 0 l 61 917 z "},"I":{"ha":254,"x_min":61,"x_max":193,"o":"m 61 917 l 193 917 l 193 0 l 61 0 l 61 917 z "},"J":{"ha":526,"x_min":61,"x_max":465,"o":"m 268 -6 q 171 15 218 -6 q 92 80 124 36 q 61 189 61 124 l 61 256 l 197 256 l 197 178 q 265 106 197 106 q 331 190 331 106 l 331 917 l 465 917 l 465 201 q 436 84 465 131 q 362 16 407 38 q 268 -6 317 -6 z "},"K":{"ha":626,"x_min":61,"x_max":564,"o":"m 61 917 l 193 917 l 193 503 l 208 503 l 394 917 l 558 917 l 283 458 l 564 0 l 400 0 l 208 411 l 193 411 l 193 0 l 61 0 l 61 917 z "},"L":{"ha":499,"x_min":61,"x_max":438,"o":"m 61 917 l 193 917 l 193 119 l 438 119 l 438 0 l 61 0 l 61 917 z "},"M":{"ha":818,"x_min":61,"x_max":757,"o":"m 61 917 l 268 917 l 410 258 l 551 917 l 757 917 l 757 0 l 624 0 l 624 717 l 603 717 l 449 0 l 368 0 l 214 717 l 193 717 l 193 0 l 61 0 l 61 917 z "},"N":{"ha":725,"x_min":61,"x_max":664,"o":"m 61 917 l 260 917 l 513 189 l 532 189 l 532 917 l 664 917 l 664 0 l 467 0 l 215 706 l 194 706 l 194 0 l 61 0 l 61 917 z "},"O":{"ha":664,"x_min":61,"x_max":601,"o":"m 339 -14 q 202 13 265 -14 q 100 95 139 40 q 61 229 61 150 l 61 688 q 99 822 61 767 q 200 903 138 876 q 336 931 263 931 q 467 903 407 931 q 565 822 528 876 q 601 688 601 767 l 601 229 q 565 95 601 150 q 469 13 529 40 q 339 -14 410 -14 m 196 215 q 233 122 196 153 q 336 92 271 92 q 432 122 396 92 q 468 213 468 151 l 468 703 q 431 794 468 764 q 335 825 394 825 q 233 794 269 825 q 196 701 196 764 l 196 215 z "},"P":{"ha":668,"x_min":61,"x_max":607,"o":"m 61 917 l 364 917 q 545 842 485 917 q 607 649 606 768 q 572 522 606 578 q 475 433 539 465 q 325 401 411 401 l 194 401 l 194 0 l 61 0 l 61 917 m 317 508 q 461 650 461 508 q 435 770 461 729 q 340 811 410 811 l 193 810 l 193 510 l 317 508 z "},"Q":{"ha":675,"x_min":61,"x_max":613,"o":"m 494 -153 q 386 -56 436 -93 q 278 -3 336 -19 q 122 81 182 21 q 61 239 61 142 l 61 688 q 99 822 61 767 q 202 903 138 876 q 343 931 267 931 q 536 867 460 931 q 613 689 613 804 l 613 229 q 571 100 613 150 q 460 28 529 50 q 590 -75 533 -12 l 494 -153 m 204 221 q 242 128 204 158 q 344 97 279 97 q 440 127 404 97 q 476 218 476 157 l 476 699 q 441 789 476 758 q 346 819 406 819 q 242 789 281 819 q 204 696 204 758 l 204 221 z "},"R":{"ha":657,"x_min":61,"x_max":594,"o":"m 61 917 l 351 917 q 533 847 472 917 q 594 658 593 778 q 499 447 592 497 q 589 251 589 400 l 589 0 l 453 0 l 453 231 q 427 337 453 299 q 326 375 401 375 l 194 375 l 194 0 l 61 0 l 61 917 m 325 482 q 427 520 401 481 q 453 642 453 560 q 427 771 453 731 q 331 811 401 811 l 193 810 l 193 483 l 325 482 z "},"S":{"ha":668,"x_min":61,"x_max":606,"o":"m 340 -14 q 208 15 269 -14 q 108 100 146 44 q 71 229 71 156 l 71 297 l 204 297 l 204 211 q 247 124 204 157 q 343 92 289 92 q 474 204 474 92 l 474 263 q 431 359 474 325 q 325 401 389 393 q 140 467 218 411 q 61 633 61 522 l 61 692 q 99 824 61 769 q 196 904 136 878 q 325 931 256 931 q 451 903 390 931 q 550 820 511 875 q 589 688 589 765 l 589 614 l 457 614 l 457 704 q 417 794 457 763 q 325 825 376 825 q 231 797 267 825 q 194 707 194 768 l 194 650 q 238 552 194 583 q 354 511 282 521 q 532 446 458 501 q 606 283 606 390 l 606 221 q 529 47 606 107 q 340 -14 453 -14 z "},"T":{"ha":650,"x_min":61,"x_max":589,"o":"m 260 779 l 61 779 l 61 917 l 589 917 l 589 779 l 392 779 l 392 0 l 260 0 l 260 779 z "},"U":{"ha":661,"x_min":61,"x_max":600,"o":"m 335 -14 q 203 15 267 -14 q 101 99 140 43 q 61 232 61 154 l 61 917 l 193 917 l 193 213 q 233 119 193 150 q 333 89 272 89 q 427 119 389 89 q 465 210 465 150 l 464 917 l 599 917 l 600 229 q 562 97 600 151 q 463 14 524 42 q 335 -14 401 -14 z "},"V":{"ha":711,"x_min":61,"x_max":650,"o":"m 61 917 l 203 917 l 335 125 l 367 125 l 510 917 l 650 917 l 433 0 l 269 0 l 61 917 z "},"W":{"ha":1060,"x_min":44,"x_max":1007,"o":"m 44 917 l 185 917 l 310 131 l 340 131 l 458 917 l 604 917 l 710 131 l 742 131 l 868 917 l 1007 917 l 824 0 l 639 0 l 529 675 l 413 0 l 228 0 l 44 917 z "},"X":{"ha":710,"x_min":61,"x_max":647,"o":"m 247 458 l 61 917 l 217 917 l 335 510 l 358 510 l 492 917 l 647 917 l 438 458 l 647 1 l 486 1 l 354 392 l 331 392 l 217 1 l 61 1 l 247 458 z "},"Y":{"ha":731,"x_min":61,"x_max":668,"o":"m 307 431 l 61 917 l 222 917 l 371 507 l 385 507 l 521 917 l 668 917 l 440 432 l 440 0 l 308 0 l 307 431 z "},"Z":{"ha":650,"x_min":61,"x_max":589,"o":"m 63 92 l 436 781 l 61 781 l 61 917 l 589 917 l 589 811 l 214 121 l 579 121 l 578 0 l 63 0 l 63 92 z "},"a":{"ha":726,"x_min":61,"x_max":665,"o":"m 279 917 l 454 917 l 665 0 l 531 0 l 468 274 l 258 274 l 196 0 l 61 0 l 279 917 m 457 394 l 379 771 l 350 771 l 269 394 l 457 394 z "},"b":{"ha":622,"x_min":61,"x_max":561,"o":"m 61 917 l 303 915 q 482 843 419 915 q 544 653 544 771 q 522 546 544 597 q 457 468 499 494 q 534 384 507 442 q 561 256 561 326 q 533 129 561 188 q 451 35 506 71 q 318 0 396 0 l 61 0 l 61 917 m 313 106 q 401 146 372 106 q 429 256 429 186 q 401 373 429 336 q 310 410 372 410 l 194 410 l 194 107 l 313 106 m 300 511 q 389 551 360 511 q 418 658 418 590 q 390 774 418 738 q 299 810 361 810 l 194 810 l 194 513 l 300 511 z "},"c":{"ha":663,"x_min":61,"x_max":601,"o":"m 339 -14 q 210 14 274 -14 q 103 97 146 42 q 61 229 61 151 l 61 688 q 103 820 61 765 q 210 903 146 875 q 339 931 274 931 q 463 903 403 931 q 563 820 524 875 q 601 688 601 765 l 601 574 l 467 574 l 467 706 q 426 794 467 763 q 336 825 386 825 q 240 794 282 825 q 197 704 197 763 l 197 214 q 239 123 197 154 q 336 92 281 92 q 425 123 385 92 q 465 211 465 154 l 465 349 l 600 349 l 600 229 q 561 97 600 151 q 462 14 522 42 q 339 -14 401 -14 z "},"d":{"ha":658,"x_min":61,"x_max":596,"o":"m 61 917 l 319 917 q 449 889 385 917 q 554 806 513 861 q 596 674 596 751 l 596 243 q 554 110 596 165 q 449 28 513 56 q 319 0 385 0 l 61 0 l 61 917 m 315 106 q 415 140 372 106 q 458 239 458 175 l 458 679 q 416 777 458 743 q 315 811 374 811 l 194 811 l 194 107 l 315 106 z "},"e":{"ha":567,"x_min":61,"x_max":506,"o":"m 61 917 l 506 917 l 506 778 l 172 778 l 172 524 l 490 524 l 490 393 l 172 393 l 172 135 l 506 135 l 506 0 l 61 0 l 61 917 z "},"f":{"ha":567,"x_min":61,"x_max":506,"o":"m 61 917 l 506 917 l 506 781 l 193 781 l 193 524 l 490 524 l 490 393 l 193 393 l 193 0 l 61 0 l 61 917 z "},"g":{"ha":663,"x_min":61,"x_max":601,"o":"m 313 -11 q 191 16 249 -11 q 97 97 133 43 q 61 229 61 151 l 61 688 q 101 820 61 765 q 204 903 140 875 q 339 931 268 931 q 468 903 408 931 q 565 820 528 875 q 601 688 601 765 l 601 603 l 467 603 l 467 703 q 428 794 467 763 q 336 825 390 825 q 236 794 276 825 q 196 701 196 763 l 196 221 q 238 129 196 161 q 336 97 281 97 q 426 128 386 97 q 467 218 467 160 l 467 385 l 396 385 l 396 506 l 601 506 l 601 0 l 483 0 l 483 81 q 313 -11 431 -11 z "},"h":{"ha":644,"x_min":61,"x_max":583,"o":"m 61 917 l 194 917 l 194 522 l 451 522 l 451 917 l 583 917 l 583 0 l 451 0 l 451 400 l 194 400 l 194 0 l 61 0 l 61 917 z "},"i":{"ha":254,"x_min":61,"x_max":193,"o":"m 61 917 l 193 917 l 193 0 l 61 0 l 61 917 z "},"j":{"ha":526,"x_min":61,"x_max":465,"o":"m 268 -6 q 171 15 218 -6 q 92 80 124 36 q 61 189 61 124 l 61 256 l 197 256 l 197 178 q 265 106 197 106 q 331 190 331 106 l 331 917 l 465 917 l 465 201 q 436 84 465 131 q 362 16 407 38 q 268 -6 317 -6 z "},"k":{"ha":626,"x_min":61,"x_max":564,"o":"m 61 917 l 193 917 l 193 503 l 208 503 l 394 917 l 558 917 l 283 458 l 564 0 l 400 0 l 208 411 l 193 411 l 193 0 l 61 0 l 61 917 z "},"l":{"ha":499,"x_min":61,"x_max":438,"o":"m 61 917 l 193 917 l 193 119 l 438 119 l 438 0 l 61 0 l 61 917 z "},"m":{"ha":818,"x_min":61,"x_max":757,"o":"m 61 917 l 268 917 l 410 258 l 551 917 l 757 917 l 757 0 l 624 0 l 624 717 l 603 717 l 449 0 l 368 0 l 214 717 l 193 717 l 193 0 l 61 0 l 61 917 z "},"n":{"ha":725,"x_min":61,"x_max":664,"o":"m 61 917 l 260 917 l 513 189 l 532 189 l 532 917 l 664 917 l 664 0 l 467 0 l 215 706 l 194 706 l 194 0 l 61 0 l 61 917 z "},"o":{"ha":664,"x_min":61,"x_max":601,"o":"m 339 -14 q 202 13 265 -14 q 100 95 139 40 q 61 229 61 150 l 61 688 q 99 822 61 767 q 200 903 138 876 q 336 931 263 931 q 467 903 407 931 q 565 822 528 876 q 601 688 601 767 l 601 229 q 565 95 601 150 q 469 13 529 40 q 339 -14 410 -14 m 196 215 q 233 122 196 153 q 336 92 271 92 q 432 122 396 92 q 468 213 468 151 l 468 703 q 431 794 468 764 q 335 825 394 825 q 233 794 269 825 q 196 701 196 764 l 196 215 z "},"p":{"ha":668,"x_min":61,"x_max":607,"o":"m 61 917 l 364 917 q 545 842 485 917 q 607 649 606 768 q 572 522 606 578 q 475 433 539 465 q 325 401 411 401 l 194 401 l 194 0 l 61 0 l 61 917 m 317 508 q 461 650 461 508 q 435 770 461 729 q 340 811 410 811 l 193 810 l 193 510 l 317 508 z "},"q":{"ha":675,"x_min":61,"x_max":613,"o":"m 494 -153 q 386 -56 436 -93 q 278 -3 336 -19 q 122 81 182 21 q 61 239 61 142 l 61 688 q 99 822 61 767 q 202 903 138 876 q 343 931 267 931 q 536 867 460 931 q 613 689 613 804 l 613 229 q 571 100 613 150 q 460 28 529 50 q 590 -75 533 -12 l 494 -153 m 204 221 q 242 128 204 158 q 344 97 279 97 q 440 127 404 97 q 476 218 476 157 l 476 699 q 441 789 476 758 q 346 819 406 819 q 242 789 281 819 q 204 696 204 758 l 204 221 z "},"r":{"ha":657,"x_min":61,"x_max":594,"o":"m 61 917 l 351 917 q 533 847 472 917 q 594 658 593 778 q 499 447 592 497 q 589 251 589 400 l 589 0 l 453 0 l 453 231 q 427 337 453 299 q 326 375 401 375 l 194 375 l 194 0 l 61 0 l 61 917 m 325 482 q 427 520 401 481 q 453 642 453 560 q 427 771 453 731 q 331 811 401 811 l 193 810 l 193 483 l 325 482 z "},"s":{"ha":668,"x_min":61,"x_max":606,"o":"m 340 -14 q 208 15 269 -14 q 108 100 146 44 q 71 229 71 156 l 71 297 l 204 297 l 204 211 q 247 124 204 157 q 343 92 289 92 q 474 204 474 92 l 474 263 q 431 359 474 325 q 325 401 389 393 q 140 467 218 411 q 61 633 61 522 l 61 692 q 99 824 61 769 q 196 904 136 878 q 325 931 256 931 q 451 903 390 931 q 550 820 511 875 q 589 688 589 765 l 589 614 l 457 614 l 457 704 q 417 794 457 763 q 325 825 376 825 q 231 797 267 825 q 194 707 194 768 l 194 650 q 238 552 194 583 q 354 511 282 521 q 532 446 458 501 q 606 283 606 390 l 606 221 q 529 47 606 107 q 340 -14 453 -14 z "},"t":{"ha":650,"x_min":61,"x_max":589,"o":"m 260 779 l 61 779 l 61 917 l 589 917 l 589 779 l 392 779 l 392 0 l 260 0 l 260 779 z "},"u":{"ha":661,"x_min":61,"x_max":600,"o":"m 335 -14 q 203 15 267 -14 q 101 99 140 43 q 61 232 61 154 l 61 917 l 193 917 l 193 213 q 233 119 193 150 q 333 89 272 89 q 427 119 389 89 q 465 210 465 150 l 464 917 l 599 917 l 600 229 q 562 97 600 151 q 463 14 524 42 q 335 -14 401 -14 z "},"v":{"ha":711,"x_min":61,"x_max":650,"o":"m 61 917 l 203 917 l 335 125 l 367 125 l 510 917 l 650 917 l 433 0 l 269 0 l 61 917 z "},"w":{"ha":1060,"x_min":44,"x_max":1007,"o":"m 44 917 l 185 917 l 310 131 l 340 131 l 458 917 l 604 917 l 710 131 l 742 131 l 868 917 l 1007 917 l 824 0 l 639 0 l 529 675 l 413 0 l 228 0 l 44 917 z "},"x":{"ha":710,"x_min":61,"x_max":647,"o":"m 247 458 l 61 917 l 217 917 l 335 510 l 358 510 l 492 917 l 647 917 l 438 458 l 647 1 l 486 1 l 354 392 l 331 392 l 217 1 l 61 1 l 247 458 z "},"y":{"ha":731,"x_min":61,"x_max":668,"o":"m 307 431 l 61 917 l 222 917 l 371 507 l 385 507 l 521 917 l 668 917 l 440 432 l 440 0 l 308 0 l 307 431 z "},"z":{"ha":650,"x_min":61,"x_max":589,"o":"m 63 92 l 436 781 l 61 781 l 61 917 l 589 917 l 589 811 l 214 121 l 579 121 l 578 0 l 63 0 l 63 92 z "},".":{"ha":292,"x_min":61,"x_max":231,"o":"m 146 0 q 85 25 110 0 q 61 85 61 50 q 86 142 61 117 q 146 168 111 168 q 207 143 183 168 q 231 85 231 118 q 205 25 231 50 q 146 0 179 0 z "},",":{"ha":343,"x_min":61,"x_max":282,"o":"m 151 238 l 282 238 l 192 0 l 61 0 l 151 238 z "},"'":{"ha":358,"x_min":63,"x_max":297,"o":"m 172 642 q 90 747 117 690 q 63 875 63 803 q 64 915 63 901 l 181 915 q 178 876 178 888 q 297 642 178 746 l 172 642 z "},"\"":{"ha":531,"x_min":63,"x_max":469,"o":"m 172 642 q 90 747 117 690 q 63 875 63 803 q 64 915 63 901 l 181 915 q 178 876 178 888 q 297 642 178 746 l 172 642 m 344 642 q 262 747 289 690 q 235 875 235 803 q 236 915 235 901 l 353 915 q 350 876 350 888 q 469 642 350 746 l 344 642 z "},"‘":{"ha":358,"x_min":63,"x_max":297,"o":"m 172 642 q 90 747 117 690 q 63 875 63 803 q 64 915 63 901 l 181 915 q 178 876 178 888 q 297 642 178 746 l 172 642 z "},"’":{"ha":358,"x_min":61,"x_max":296,"o":"m 61 642 q 181 876 181 746 q 178 915 181 888 l 294 915 q 296 875 296 901 q 269 747 296 803 q 186 642 242 690 l 61 642 z "},"“":{"ha":531,"x_min":63,"x_max":469,"o":"m 172 642 q 90 747 117 690 q 63 875 63 803 q 64 915 63 901 l 181 915 q 178 876 178 888 q 297 642 178 746 l 172 642 m 344 642 q 262 747 289 690 q 235 875 235 803 q 236 915 235 901 l 353 915 q 350 876 350 888 q 469 642 350 746 l 344 642 z "},"”":{"ha":531,"x_min":61,"x_max":468,"o":"m 233 642 q 353 876 353 746 q 350 915 353 888 l 467 915 q 468 875 468 901 q 441 747 468 803 q 358 642 414 690 l 233 642 m 61 642 q 181 876 181 746 q 178 915 181 888 l 294 915 q 296 875 296 901 q 269 747 296 803 q 186 642 242 690 l 61 642 z "},"-":{"ha":542,"x_min":61,"x_max":481,"o":"m 61 464 l 481 464 l 481 343 l 61 343 l 61 464 z "},"+":{"ha":542,"x_min":61,"x_max":481,"o":"m 211 343 l 61 343 l 61 464 l 211 464 l 211 614 l 333 614 l 333 464 l 481 464 l 481 343 l 333 343 l 333 196 l 211 196 l 211 343 z "},"*":{"ha":542,"x_min":61,"x_max":481,"o":"m 144 658 l 61 658 l 61 751 l 167 751 l 89 829 l 154 896 l 222 828 l 222 917 l 317 917 l 317 831 l 385 899 l 453 831 l 372 751 l 481 751 l 481 658 l 392 658 l 451 599 l 386 533 l 317 601 l 317 497 l 222 497 l 222 600 l 156 535 l 89 603 l 144 658 z "},"^":{"ha":522,"x_min":61,"x_max":461,"o":"m 213 917 l 303 917 l 461 574 l 335 574 l 258 749 l 186 574 l 61 574 l 213 917 z "},"/":{"ha":636,"x_min":61,"x_max":575,"o":"m 447 917 l 575 917 l 190 0 l 61 0 l 447 917 z "},"\\":{"ha":636,"x_min":61,"x_max":575,"o":"m 61 917 l 190 917 l 575 0 l 447 0 l 61 917 z "},":":{"ha":293,"x_min":61,"x_max":232,"o":"m 147 100 q 87 125 111 100 q 63 185 63 150 q 88 242 63 217 q 147 268 113 268 q 208 243 185 268 q 232 185 232 218 q 206 125 232 150 q 147 100 181 100 m 146 588 q 85 613 110 588 q 61 672 61 638 q 86 730 61 704 q 146 756 111 756 q 207 731 183 756 q 231 672 231 706 q 205 613 231 638 q 146 588 179 588 z "},";":{"ha":358,"x_min":61,"x_max":288,"o":"m 203 588 q 142 613 167 588 q 118 672 118 638 q 143 730 118 704 q 203 756 168 756 q 264 731 240 756 q 288 672 288 706 q 262 613 288 638 q 203 588 236 588 m 151 283 l 282 283 l 192 46 l 61 46 l 151 283 z "},"<":{"ha":599,"x_min":61,"x_max":538,"o":"m 61 426 l 374 696 l 538 696 l 228 426 l 515 154 l 358 154 l 61 426 z "},"=":{"ha":542,"x_min":61,"x_max":479,"o":"m 61 581 l 479 581 l 479 460 l 61 460 l 61 581 m 61 432 l 479 432 l 479 310 l 61 310 l 61 432 z "},">":{"ha":599,"x_min":61,"x_max":538,"o":"m 371 426 l 61 696 l 225 696 l 538 426 l 240 154 l 83 154 l 371 426 z "},"!":{"ha":278,"x_min":67,"x_max":206,"o":"m 83 917 l 206 917 l 179 175 l 97 175 l 83 917 m 67 68 q 88 115 67 94 q 136 136 108 136 q 185 116 167 136 q 204 68 204 96 q 184 21 204 42 q 136 0 164 0 q 87 21 107 0 q 67 68 67 42 z "},"?":{"ha":650,"x_min":63,"x_max":589,"o":"m 93 204 q 153 378 93 318 q 346 471 214 439 q 442 528 417 488 q 468 649 468 568 l 468 682 q 432 777 468 747 q 326 807 396 807 q 224 774 264 807 q 183 678 183 742 l 183 603 l 63 603 l 63 686 q 99 818 63 764 q 195 900 135 872 q 326 928 256 928 q 516 869 443 928 q 589 693 589 810 l 589 636 q 535 460 589 525 q 374 368 481 396 q 237 307 275 346 q 199 193 199 268 l 199 167 l 93 167 l 93 204 m 81 68 q 101 115 81 94 q 149 136 121 136 q 199 116 179 136 q 218 68 218 96 q 197 21 218 42 q 149 0 176 0 q 101 21 121 0 q 81 68 81 42 z "},"#":{"ha":1242,"x_min":61,"x_max":1181,"o":"m 232 286 l 61 286 l 113 404 l 282 404 l 336 531 l 143 531 l 188 643 l 378 643 l 497 917 l 626 917 l 506 644 l 835 644 l 953 917 l 1082 917 l 964 646 l 1181 646 l 1138 532 l 921 532 l 867 406 l 1106 407 l 1056 288 l 818 288 l 696 0 l 568 0 l 689 288 l 361 286 l 240 0 l 113 0 l 232 286 m 738 406 l 792 532 l 464 531 l 411 404 l 738 406 z "},"@":{"ha":1401,"x_min":61,"x_max":1339,"o":"m 675 -286 q 365 -221 503 -281 q 144 -36 226 -161 q 61 278 61 89 q 151 619 61 475 q 397 839 240 763 q 753 915 554 915 q 1060 857 928 915 q 1265 681 1192 799 q 1339 392 1339 564 q 1301 192 1339 286 q 1194 42 1263 99 q 1042 -15 1126 -15 q 948 15 990 -15 q 907 119 906 46 q 788 33 858 60 q 644 7 718 7 q 442 80 515 7 q 369 281 369 153 q 414 471 369 389 q 540 598 458 553 q 728 643 621 643 q 942 577 864 643 q 1019 382 1019 511 q 1007 249 1019 343 q 997 161 997 190 q 1015 108 997 121 q 1054 94 1033 94 q 1128 133 1090 94 q 1192 240 1167 172 q 1217 389 1217 307 q 1091 706 1217 604 q 749 807 965 807 q 454 743 582 807 q 256 559 326 679 q 185 278 185 439 q 249 35 185 135 q 422 -115 313 -65 q 671 -168 532 -165 l 675 -286 m 478 297 q 528 158 478 201 q 664 114 579 114 q 789 147 732 114 q 878 237 846 181 q 911 358 911 293 q 857 492 911 447 q 718 536 803 536 q 545 472 613 536 q 478 297 478 407 z "},"$":{"ha":668,"x_min":61,"x_max":606,"o":"m 261 0 q 123 82 178 22 q 67 229 68 142 l 67 299 l 188 299 l 189 233 q 235 142 189 176 q 343 107 281 107 q 485 226 485 107 l 485 257 q 324 394 485 371 q 140 470 219 410 q 61 636 61 531 l 61 696 q 118 849 61 793 q 261 921 175 906 l 261 1024 l 383 1024 l 383 921 q 528 844 468 904 q 589 688 589 785 l 589 618 l 467 618 l 467 682 q 424 776 467 743 q 325 810 382 810 q 183 686 183 810 l 183 651 q 346 515 183 543 q 528 435 450 497 q 606 268 606 374 l 606 215 q 543 57 606 113 q 383 -8 481 1 l 383 -121 l 261 -121 l 261 0 z "},"€":{"ha":764,"x_min":58,"x_max":703,"o":"m 440 -14 q 311 14 375 -14 q 205 97 247 42 q 163 229 163 151 l 163 350 l 58 350 l 58 463 l 163 463 l 163 488 l 58 488 l 58 600 l 163 600 l 163 688 q 205 820 163 765 q 311 903 247 875 q 440 931 375 931 q 565 903 504 931 q 664 820 625 875 q 703 688 703 765 l 703 574 l 568 574 l 568 706 q 528 794 568 763 q 438 825 488 825 q 341 794 383 825 q 299 704 299 763 l 299 600 l 443 600 l 443 488 l 299 488 l 299 463 l 443 463 l 443 350 l 299 350 l 299 214 q 340 123 299 154 q 438 92 382 92 q 526 123 486 92 q 567 211 567 154 l 567 349 l 701 349 l 701 229 q 663 97 701 151 q 563 14 624 42 q 440 -14 503 -14 z "},"%":{"ha":1354,"x_min":61,"x_max":1293,"o":"m 283 165 q 126 216 192 165 q 61 358 61 267 l 61 725 q 126 868 61 817 q 282 919 190 919 q 432 868 371 919 q 493 725 493 817 l 493 358 q 433 216 493 267 q 283 165 372 165 m 158 369 q 191 292 158 324 q 283 261 224 261 q 364 289 332 261 q 396 367 396 317 l 396 494 l 158 493 l 158 369 m 396 590 l 396 717 q 366 794 396 767 q 282 822 336 822 q 192 795 226 822 q 158 715 158 768 l 158 590 l 396 590 m 796 915 l 924 915 l 539 -1 l 410 -1 l 796 915 m 846 572 q 913 720 846 667 q 1074 774 979 774 q 1230 721 1167 774 q 1293 572 1293 668 l 1293 193 q 1230 45 1293 97 q 1075 -7 1167 -7 q 963 16 1015 -7 q 878 84 910 39 q 846 193 846 129 l 846 572 m 947 206 q 981 125 947 157 q 1075 93 1014 93 q 1158 122 1125 93 q 1192 201 1192 150 l 1192 333 l 947 332 l 947 206 m 1192 433 l 1192 564 q 1161 644 1192 615 q 1074 674 1131 674 q 982 645 1017 674 q 947 563 947 617 l 947 433 l 1192 433 z "},"&":{"ha":971,"x_min":61,"x_max":910,"o":"m 369 0 q 215 32 285 0 q 103 126 144 64 q 61 271 61 188 q 94 401 61 339 q 191 503 126 464 q 346 542 256 542 q 299 625 311 590 q 286 701 286 660 q 320 822 286 774 q 403 894 354 871 q 501 917 453 917 q 622 889 564 917 q 717 806 681 861 q 753 675 753 751 l 753 611 l 632 611 l 632 681 q 595 769 632 739 q 508 800 558 800 q 436 770 465 799 q 407 701 407 742 q 420 641 407 665 q 471 565 433 617 l 910 0 l 765 0 l 622 179 q 527 42 592 83 q 369 0 463 0 m 181 271 q 236 155 181 193 q 368 117 292 117 q 481 156 436 117 q 526 274 526 196 q 505 349 526 311 q 444 413 483 388 q 351 438 404 438 q 232 393 283 438 q 181 271 181 349 z "},"(":{"ha":490,"x_min":61,"x_max":429,"o":"m 392 -19 q 235 62 311 -8 q 110 242 158 132 q 61 478 61 353 q 102 721 61 614 q 210 896 143 828 q 358 989 278 964 l 417 893 q 246 733 299 844 q 193 481 193 622 q 222 309 193 392 q 303 166 250 226 q 429 83 357 106 l 392 -19 z "},")":{"ha":490,"x_min":61,"x_max":429,"o":"m 61 83 q 187 166 133 106 q 269 309 240 226 q 297 481 297 392 q 244 733 297 622 q 74 893 192 844 l 132 989 q 280 896 213 964 q 388 721 347 828 q 429 478 429 614 q 381 242 429 353 q 256 62 332 132 q 99 -19 179 -8 l 61 83 z "},"{":{"ha":451,"x_min":61,"x_max":389,"o":"m 389 -36 q 265 -17 322 -40 q 171 56 207 7 q 133 171 135 104 q 143 242 133 199 q 156 336 156 304 q 140 386 156 367 q 93 428 124 406 q 69 448 76 440 q 61 464 61 456 q 68 478 61 472 q 92 496 75 485 q 138 535 121 515 q 156 590 156 556 q 150 653 156 619 q 143 694 144 686 q 132 785 132 758 q 190 947 132 893 q 347 1000 247 1000 l 347 913 q 254 800 254 903 q 257 767 254 792 q 268 690 260 736 q 274 647 269 676 q 278 594 278 617 q 265 517 278 547 q 218 464 253 486 q 265 410 253 440 q 278 335 278 381 q 269 265 278 310 q 261 179 261 215 q 294 88 261 122 q 389 61 328 54 l 389 -36 z "},"|":{"ha":244,"x_min":61,"x_max":183,"o":"m 61 944 l 183 944 l 183 -33 l 61 -33 l 61 944 z "},"}":{"ha":451,"x_min":63,"x_max":390,"o":"m 63 61 q 82 60 69 60 q 163 93 135 60 q 190 179 190 126 q 182 265 190 215 q 174 335 174 310 q 186 410 174 381 q 233 464 199 440 q 186 517 199 486 q 174 594 174 547 q 178 647 174 617 q 183 690 182 676 q 194 767 192 736 q 197 800 197 792 q 104 913 197 903 l 104 1000 q 262 947 204 1000 q 319 785 319 893 q 308 694 319 758 q 301 653 307 686 q 296 590 296 619 q 313 535 296 556 q 360 496 331 515 q 383 478 376 485 q 390 464 390 472 q 383 448 390 456 q 358 428 375 440 q 312 386 328 406 q 296 336 296 367 q 308 242 296 304 q 318 171 318 199 q 281 56 317 104 q 187 -17 244 7 q 63 -36 129 -40 l 63 61 z "},"[":{"ha":335,"x_min":61,"x_max":274,"o":"m 61 963 l 274 963 l 274 840 l 188 840 l 188 -65 l 274 -65 l 274 -187 l 61 -187 l 61 963 z "},"]":{"ha":335,"x_min":61,"x_max":274,"o":"m 61 -187 l 61 -65 l 147 -65 l 147 840 l 61 840 l 61 963 l 274 963 l 274 -187 l 61 -187 z "},"‚":{"ha":343,"x_min":61,"x_max":282,"o":"m 151 238 l 282 238 l 192 0 l 61 0 l 151 238 z "},"„":{"ha":507,"x_min":61,"x_max":446,"o":"m 151 238 l 282 238 l 192 0 l 61 0 l 151 238 m 315 238 l 446 238 l 356 0 l 225 0 l 315 238 z "},"•":{"ha":340,"x_min":61,"x_max":281,"o":"m 171 292 q 92 324 124 292 q 61 401 61 357 q 93 476 61 442 q 171 510 125 510 q 250 477 219 510 q 281 401 281 444 q 247 324 281 357 q 171 292 214 292 z "},"_":{"ha":671,"x_min":61,"x_max":610,"o":"m 61 185 l 610 185 l 610 64 l 61 64 l 61 185 z "},"–":{"ha":665,"x_min":61,"x_max":604,"o":"m 61 425 l 604 425 l 604 304 l 61 304 l 61 425 z "},"—":{"ha":768,"x_min":61,"x_max":707,"o":"m 61 424 l 707 424 l 707 303 l 61 303 l 61 424 z "},"¯":{"ha":563,"x_min":61,"x_max":501,"o":"m 61 893 l 501 893 l 501 769 l 61 769 l 61 893 z "},"¬":{"ha":767,"x_min":61,"x_max":706,"o":"m 583 349 l 61 349 l 61 469 l 706 469 l 706 164 l 583 164 l 583 349 z "},"™":{"ha":1285,"x_min":61,"x_max":1224,"o":"m 276 794 l 61 794 l 61 917 l 733 917 l 890 258 l 1049 917 l 1224 917 l 1224 0 l 1104 0 l 1104 664 l 1083 664 l 929 0 l 849 0 l 696 664 l 674 664 l 674 0 l 558 0 l 558 794 l 397 794 l 397 0 l 276 0 l 276 794 z "},"®":{"ha":658,"x_min":61,"x_max":597,"o":"m 329 363 q 194 399 256 363 q 97 497 132 435 q 61 633 61 558 q 94 774 61 710 q 188 878 128 839 q 329 917 249 917 q 469 880 408 917 q 564 781 531 843 q 597 642 597 718 q 564 501 597 565 q 469 400 531 438 q 329 363 408 363 m 103 639 q 132 518 103 571 q 213 435 161 465 q 329 406 265 406 q 447 436 394 406 q 528 521 499 467 q 557 642 557 575 q 493 809 557 744 q 329 874 429 874 q 213 843 264 874 q 132 759 161 813 q 103 639 103 706 m 233 815 l 339 815 q 409 789 386 815 q 432 718 432 763 q 393 638 432 660 q 432 560 432 619 l 432 458 l 393 458 l 393 557 q 381 603 393 586 q 333 619 368 619 l 272 619 l 272 458 l 233 458 l 233 815 m 333 657 q 381 673 368 657 q 393 718 393 689 q 381 761 393 746 q 335 776 368 776 l 272 776 l 272 658 l 333 657 z "},"©":{"ha":721,"x_min":61,"x_max":660,"o":"m 360 299 q 209 339 278 299 q 101 448 140 379 q 61 600 61 517 q 98 758 61 686 q 203 874 135 831 q 360 917 271 917 q 517 876 449 917 q 622 765 585 835 q 660 610 660 694 q 622 454 660 525 q 517 341 585 383 q 360 299 449 299 m 113 607 q 144 475 113 533 q 233 384 176 417 q 360 351 289 351 q 489 385 432 351 q 577 477 546 418 q 608 610 608 536 q 577 742 608 683 q 489 832 546 800 q 360 864 432 864 q 233 831 289 864 q 144 738 176 797 q 113 607 113 679 m 242 699 q 279 775 242 747 q 363 803 317 803 q 440 775 406 803 q 475 699 475 747 l 475 661 l 424 661 l 424 694 q 404 736 424 721 q 360 751 385 751 q 313 736 332 751 q 293 693 293 721 l 293 503 q 313 460 293 475 q 360 444 333 444 q 404 460 385 444 q 424 503 424 475 l 424 533 l 474 533 l 474 499 q 439 421 474 449 q 363 393 404 393 q 279 421 317 393 q 242 499 242 449 l 242 699 z "},"¤":{"ha":828,"x_min":61,"x_max":760,"o":"m 218 206 q 149 304 174 246 q 124 428 124 363 q 148 558 124 497 q 218 663 172 619 l 61 915 l 197 915 l 313 726 q 431 753 368 753 q 501 742 465 753 l 593 915 l 725 915 l 608 694 q 703 586 669 654 q 738 438 738 518 q 711 305 738 367 q 636 200 685 243 l 760 0 l 625 0 l 539 139 q 431 118 492 118 q 317 143 369 118 l 242 0 l 110 0 l 218 206 m 246 429 q 294 288 246 336 q 431 240 342 240 q 566 292 517 240 q 615 438 615 344 q 567 581 615 532 q 431 629 519 629 q 295 576 344 629 q 246 429 246 524 z "},"¢":{"ha":663,"x_min":61,"x_max":601,"o":"m 269 -3 q 123 76 185 17 q 61 229 61 135 l 61 688 q 123 841 61 782 q 269 919 185 900 l 269 993 l 406 993 l 406 917 q 544 840 486 899 q 601 688 601 782 l 601 603 l 479 603 l 479 679 q 435 776 479 742 q 336 810 392 810 q 228 775 274 810 q 183 676 183 740 l 183 240 q 228 142 183 176 q 336 107 274 107 q 435 142 392 107 q 479 239 479 176 l 479 310 l 600 310 l 600 229 q 543 76 600 135 q 406 0 486 18 l 406 -92 l 269 -92 l 269 -3 z "},"£":{"ha":813,"x_min":61,"x_max":751,"o":"m 129 0 q 187 133 167 72 q 215 271 207 193 q 218 314 218 296 q 206 421 218 358 l 61 421 l 61 543 l 181 543 q 153 669 153 624 q 193 801 153 746 q 300 886 233 857 q 443 915 367 915 q 652 856 574 915 q 751 699 731 797 l 639 699 q 578 775 626 747 q 444 803 531 803 q 357 785 399 803 q 292 733 315 767 q 272 657 268 700 q 292 569 276 610 l 300 543 l 543 543 l 543 421 l 314 421 q 331 289 331 349 q 294 121 331 196 l 699 121 l 699 0 l 129 0 z "},"¥":{"ha":731,"x_min":61,"x_max":668,"o":"m 308 199 l 150 199 l 150 321 l 307 321 l 307 349 l 150 349 l 150 469 l 288 469 l 61 917 l 222 917 l 371 507 l 385 507 l 521 917 l 668 917 l 458 469 l 568 469 l 568 349 l 440 349 l 440 321 l 568 321 l 568 199 l 440 199 l 440 0 l 308 0 l 308 199 z "},"ƒ":{"ha":763,"x_min":61,"x_max":700,"o":"m 61 0 q 131 224 110 149 q 167 394 151 300 l 106 394 l 106 514 l 189 515 l 200 579 q 210 632 203 593 q 233 742 221 701 q 271 818 244 782 q 354 891 306 867 q 479 915 403 915 l 700 915 l 700 799 l 529 799 q 432 791 465 799 q 379 756 399 783 q 343 682 354 722 q 319 572 332 642 l 310 514 l 572 514 l 569 393 l 289 393 q 249 208 271 292 q 188 0 226 124 l 61 0 z "},"−":{"ha":542,"x_min":61,"x_max":481,"o":"m 61 464 l 481 464 l 481 343 l 61 343 l 61 464 z "},"±":{"ha":576,"x_min":61,"x_max":515,"o":"m 211 531 l 61 531 l 61 651 l 211 651 l 211 801 l 333 801 l 333 651 l 481 651 l 481 531 l 333 531 l 333 383 l 211 383 l 211 531 m 96 219 l 515 219 l 515 99 l 96 99 l 96 219 z "},"×":{"ha":507,"x_min":61,"x_max":446,"o":"m 168 431 l 61 538 l 147 622 l 253 517 l 358 622 l 446 536 l 339 429 l 443 326 l 358 240 l 254 344 l 150 240 l 64 326 l 168 431 z "},"÷":{"ha":542,"x_min":61,"x_max":481,"o":"m 61 464 l 481 464 l 481 343 l 61 343 l 61 464 m 264 135 q 203 160 228 135 q 179 219 179 185 q 204 277 179 251 q 264 303 229 303 q 325 278 301 303 q 349 219 349 253 q 323 160 349 185 q 264 135 297 135 m 265 514 q 205 539 229 514 q 181 599 181 564 q 206 656 181 631 q 265 682 231 682 q 326 657 303 682 q 350 599 350 632 q 324 539 350 564 q 265 514 299 514 z "},"¦":{"ha":244,"x_min":61,"x_max":183,"o":"m 61 413 l 183 413 l 183 -29 l 61 -29 l 61 413 m 61 928 l 183 928 l 183 546 l 61 546 l 61 928 z "},"…":{"ha":796,"x_min":61,"x_max":735,"o":"m 146 0 q 85 25 110 0 q 61 85 61 50 q 86 142 61 117 q 146 168 111 168 q 207 143 183 168 q 231 85 231 118 q 205 25 231 50 q 146 0 179 0 m 404 0 q 344 25 368 0 q 319 85 319 50 q 344 142 319 117 q 404 168 369 168 q 465 143 442 168 q 489 85 489 118 q 463 25 489 50 q 404 0 438 0 m 650 0 q 590 25 614 0 q 565 85 565 50 q 590 142 565 117 q 650 168 615 168 q 711 143 688 168 q 735 85 735 118 q 709 25 735 50 q 650 0 683 0 z "},"·":{"ha":292,"x_min":61,"x_max":231,"o":"m 146 331 q 85 356 110 331 q 61 415 61 381 q 86 473 61 447 q 146 499 111 499 q 207 474 183 499 q 231 415 231 449 q 205 356 231 381 q 146 331 179 331 z "},"¡":{"ha":278,"x_min":67,"x_max":206,"o":"m 179 565 l 206 -176 l 83 -176 l 97 565 l 179 565 m 67 672 q 87 719 67 699 q 136 740 107 740 q 184 720 164 740 q 204 672 204 700 q 185 624 204 644 q 136 604 167 604 q 88 625 108 604 q 67 672 67 646 z "},"¿":{"ha":650,"x_min":61,"x_max":588,"o":"m 557 539 q 497 365 557 425 q 304 272 436 304 q 208 215 233 256 q 182 94 182 175 l 182 61 q 218 -34 182 -4 q 324 -64 254 -64 q 426 -31 386 -64 q 467 65 467 1 l 467 140 l 588 140 l 588 57 q 551 -75 588 -21 q 455 -157 515 -129 q 324 -185 394 -185 q 134 -126 207 -185 q 61 50 61 -67 l 61 107 q 115 283 61 218 q 276 375 169 347 q 413 436 375 397 q 451 550 451 475 l 451 576 l 557 576 l 557 539 m 432 675 q 453 722 432 701 q 501 743 474 743 q 549 722 529 743 q 569 675 569 701 q 549 628 569 649 q 501 607 529 607 q 451 627 471 607 q 432 675 432 647 z "},"°":{"ha":403,"x_min":61,"x_max":342,"o":"m 201 618 q 99 664 138 618 q 61 767 61 710 q 99 872 61 826 q 203 917 138 917 q 304 871 267 917 q 342 767 342 825 q 303 664 342 710 q 201 618 265 618 m 139 764 q 156 719 139 740 q 201 699 174 699 q 249 719 231 699 q 267 764 267 740 q 249 810 267 790 q 203 831 232 831 q 156 811 172 831 q 139 764 139 792 z "},"⁄":{"ha":636,"x_min":61,"x_max":575,"o":"m 447 917 l 575 917 l 190 0 l 61 0 l 447 917 z "},"‰":{"ha":1935,"x_min":61,"x_max":1874,"o":"m 290 135 q 178 158 231 135 q 93 226 125 181 q 61 336 61 272 l 61 715 q 128 863 61 810 q 289 915 194 915 q 445 863 382 915 q 508 715 508 810 l 508 336 q 445 188 508 240 q 290 135 382 135 m 161 347 q 194 267 161 299 q 290 235 228 235 q 374 264 340 235 q 407 344 407 293 l 407 476 l 161 475 l 161 347 m 407 576 l 407 707 q 376 786 407 757 q 289 815 346 815 q 196 788 231 815 q 161 704 161 760 l 161 576 l 407 576 m 836 915 l 964 915 l 579 -1 l 450 -1 l 836 915 m 911 579 q 978 727 911 674 q 1139 781 1044 781 q 1295 728 1232 781 q 1358 579 1358 675 l 1358 200 q 1295 52 1358 104 q 1140 0 1232 0 q 1028 23 1081 0 q 943 91 975 46 q 911 200 911 136 l 911 579 m 1011 213 q 1044 132 1011 164 q 1140 100 1078 100 q 1224 128 1190 100 q 1257 208 1257 157 l 1257 340 l 1011 339 l 1011 213 m 1257 440 l 1257 571 q 1226 651 1257 622 q 1139 681 1196 681 q 1047 652 1082 681 q 1011 569 1011 624 l 1011 440 l 1257 440 m 1426 579 q 1493 727 1426 674 q 1654 781 1560 781 q 1810 728 1747 781 q 1874 579 1874 675 l 1874 200 q 1810 52 1874 104 q 1656 0 1747 0 q 1543 23 1596 0 q 1458 91 1490 46 q 1426 200 1426 136 l 1426 579 m 1528 213 q 1561 132 1528 164 q 1656 100 1594 100 q 1740 128 1707 100 q 1774 208 1774 157 l 1774 340 l 1528 339 l 1528 213 m 1774 440 l 1774 571 q 1742 651 1774 621 q 1654 681 1711 681 q 1563 652 1597 681 q 1528 569 1528 624 l 1528 440 l 1774 440 z "},"¶":{"ha":858,"x_min":61,"x_max":797,"o":"m 475 401 l 343 401 q 193 433 257 401 q 96 522 129 465 q 61 649 63 578 q 123 842 63 768 q 304 917 183 917 l 597 917 l 597 0 l 475 0 l 475 401 m 675 917 l 797 917 l 797 0 l 675 0 l 675 917 z "},"§":{"ha":625,"x_min":61,"x_max":564,"o":"m 322 -257 q 199 -230 257 -257 q 103 -152 140 -203 q 67 -33 67 -101 l 67 32 l 171 32 l 171 -29 q 215 -119 171 -85 q 322 -153 260 -153 q 460 -36 460 -153 l 460 -8 q 416 85 460 53 q 304 126 372 117 q 134 197 207 142 q 61 350 61 253 l 61 406 q 106 538 61 486 q 61 664 61 593 l 61 718 q 133 880 61 825 q 304 935 204 935 q 419 910 364 935 q 511 834 475 885 q 547 711 547 783 l 547 644 l 443 644 l 443 706 q 401 798 443 765 q 304 831 360 831 q 202 802 239 831 q 165 711 165 774 l 165 676 q 322 544 165 569 q 492 470 419 526 q 564 317 564 414 l 564 267 q 517 131 564 185 q 564 3 564 76 l 564 -47 q 495 -205 564 -153 q 322 -257 426 -257 m 165 363 q 311 233 165 260 q 422 192 376 221 q 460 278 460 213 l 460 306 q 419 396 460 364 q 319 438 378 428 q 196 481 246 451 q 165 397 165 451 l 165 363 z "},"†":{"ha":468,"x_min":61,"x_max":406,"o":"m 176 656 l 61 656 l 61 776 l 176 776 l 176 901 l 299 901 l 299 776 l 406 776 l 406 656 l 299 656 l 299 286 l 176 286 l 176 656 z "},"‡":{"ha":468,"x_min":61,"x_max":406,"o":"m 176 485 l 61 485 l 61 597 l 176 597 l 176 667 l 61 667 l 61 782 l 176 782 l 176 901 l 299 901 l 299 782 l 406 782 l 406 667 l 299 667 l 299 597 l 406 597 l 406 485 l 299 485 l 299 289 l 176 289 l 176 485 z "},"~":{"ha":722,"x_min":61,"x_max":660,"o":"m 61 338 q 140 497 97 451 q 236 543 182 543 q 306 528 275 543 q 376 488 336 514 q 424 459 406 468 q 460 450 442 450 q 503 474 485 450 q 535 550 521 497 l 660 531 q 584 366 624 415 q 493 317 544 317 q 428 331 457 317 q 363 372 400 344 q 308 407 329 396 q 260 419 286 418 q 217 390 235 419 q 183 297 200 360 l 61 338 z "},"‹":{"ha":597,"x_min":61,"x_max":536,"o":"m 61 425 l 363 689 l 536 689 l 240 425 l 531 154 l 358 154 l 61 425 z "},"›":{"ha":597,"x_min":61,"x_max":536,"o":"m 67 154 l 357 425 l 61 689 l 235 689 l 536 425 l 239 154 l 67 154 z "},"«":{"ha":1039,"x_min":61,"x_max":978,"o":"m 61 425 l 363 689 l 536 689 l 240 425 l 531 154 l 358 154 l 61 425 m 503 418 l 804 682 l 978 682 l 682 418 l 972 147 l 800 147 l 503 418 z "},"»":{"ha":1039,"x_min":61,"x_max":978,"o":"m 508 142 l 799 413 l 503 676 l 676 676 l 978 413 l 681 142 l 508 142 m 235 669 l 536 406 l 239 135 l 67 135 l 357 406 l 61 669 l 235 669 z "},"`":{"ha":329,"x_min":61,"x_max":268,"o":"m 61 915 l 183 915 l 268 703 l 146 703 l 61 915 z "},"¨":{"ha":454,"x_min":61,"x_max":393,"o":"m 136 704 q 83 727 104 704 q 61 781 61 750 q 83 831 61 808 q 136 854 106 854 q 191 832 169 854 q 213 781 213 810 q 190 727 213 750 q 136 704 167 704 m 240 781 q 263 832 240 808 q 317 856 285 856 q 372 833 350 856 q 393 781 393 811 q 370 727 393 750 q 317 704 347 704 q 263 727 285 704 q 240 781 240 750 z "},"´":{"ha":329,"x_min":61,"x_max":268,"o":"m 61 703 l 146 915 l 268 915 l 183 703 l 61 703 z "},"¸":{"ha":419,"x_min":61,"x_max":357,"o":"m 103 -57 q 201 -47 172 -57 q 238 -14 229 -36 q 240 -1 240 -6 q 203 47 240 25 q 104 76 167 69 l 169 211 l 289 211 l 239 114 q 327 63 297 99 q 357 -17 357 28 q 347 -67 357 -46 q 276 -141 328 -115 q 146 -167 224 -167 q 61 -160 113 -167 l 61 -56 l 103 -57 z "},"ˆ":{"ha":482,"x_min":61,"x_max":421,"o":"m 246 897 l 421 642 l 293 642 l 242 733 l 188 642 l 61 642 l 246 897 z "},"ˇ":{"ha":482,"x_min":61,"x_max":421,"o":"m 188 985 l 242 893 l 293 985 l 421 985 l 246 729 l 61 985 l 188 985 z "},"˘":{"ha":611,"x_min":61,"x_max":550,"o":"m 300 725 q 205 746 254 725 q 116 810 156 767 q 61 917 76 853 l 172 917 q 228 853 189 876 q 306 829 267 829 q 381 852 346 829 q 438 917 415 875 l 550 917 q 448 771 515 817 q 300 725 381 725 z "},"˙":{"ha":271,"x_min":61,"x_max":210,"o":"m 135 722 q 83 744 104 722 q 61 796 61 767 q 83 847 61 824 q 135 871 106 871 q 189 848 168 871 q 210 796 210 825 q 188 744 210 767 q 135 722 165 722 z "},"˚":{"ha":403,"x_min":61,"x_max":342,"o":"m 201 617 q 99 663 138 617 q 61 765 61 708 q 99 870 61 825 q 203 915 138 915 q 304 869 267 915 q 342 765 342 824 q 303 663 342 708 q 201 617 265 617 m 139 763 q 156 718 139 739 q 201 697 174 697 q 249 718 231 697 q 267 763 267 739 q 249 809 267 789 q 203 829 232 829 q 156 810 172 829 q 139 763 139 790 z "},"˛":{"ha":439,"x_min":61,"x_max":376,"o":"m 376 -85 q 228 -131 299 -131 q 135 -106 175 -131 q 75 -39 94 -81 q 61 21 61 -8 q 106 126 61 78 q 238 193 150 175 l 297 183 l 306 115 q 212 79 243 104 q 181 25 181 54 q 199 -15 181 0 q 251 -29 218 -29 q 347 -7 293 -29 l 376 -85 z "},"˝":{"ha":467,"x_min":61,"x_max":406,"o":"m 154 915 l 268 915 l 181 671 l 61 671 l 154 915 m 293 915 l 406 915 l 321 671 l 203 671 l 293 915 z "},"ª":{"ha":554,"x_min":61,"x_max":493,"o":"m 217 915 l 342 915 l 493 260 l 396 260 l 351 456 l 201 456 l 157 260 l 61 260 l 217 915 m 344 542 l 289 811 l 268 811 l 210 542 l 344 542 z "},"¹":{"ha":256,"x_min":61,"x_max":194,"o":"m 119 821 l 63 804 l 61 882 l 194 921 l 194 347 l 119 347 l 119 821 z "},"º":{"ha":422,"x_min":61,"x_max":361,"o":"m 215 393 q 106 428 151 393 q 61 528 61 463 l 61 782 q 106 882 61 847 q 214 917 150 917 q 318 882 275 917 q 361 782 361 847 l 361 528 q 319 428 361 463 q 215 393 276 393 m 136 521 q 214 453 136 453 q 267 469 247 453 q 286 519 286 486 l 286 790 q 266 842 286 825 q 213 858 246 858 q 156 842 176 858 q 136 790 136 825 l 136 521 z "},"¼":{"ha":935,"x_min":61,"x_max":874,"o":"m 124 811 l 63 794 l 61 878 l 204 918 l 204 307 l 124 307 l 124 811 m 499 917 l 611 917 l 274 -3 l 161 -3 l 499 917 m 665 611 l 756 611 l 550 253 l 688 253 l 688 339 l 769 339 l 769 253 l 874 253 l 874 171 l 768 171 l 768 0 l 688 0 l 688 171 l 417 171 l 665 611 z "},"½":{"ha":900,"x_min":61,"x_max":840,"o":"m 124 814 l 63 797 l 61 881 l 204 921 l 204 310 l 124 310 l 124 814 m 474 917 l 578 917 l 265 0 l 160 0 l 474 917 m 488 461 q 539 581 488 539 q 664 624 590 624 q 791 584 742 624 q 840 467 840 544 l 840 426 q 801 303 840 351 q 692 240 763 256 q 606 205 628 228 q 583 138 583 182 l 583 83 l 821 83 l 821 3 l 501 3 l 501 139 q 544 258 501 215 q 675 321 586 301 q 741 356 724 331 q 758 435 758 382 l 758 460 q 735 524 758 504 q 664 543 711 543 q 596 522 622 543 q 569 457 569 500 l 569 404 l 488 404 l 488 461 z "},"¾":{"ha":1068,"x_min":61,"x_max":1006,"o":"m 246 311 q 115 355 168 311 q 61 472 61 399 l 61 528 l 143 528 l 143 478 q 172 415 143 439 q 246 392 200 392 q 316 414 292 392 q 340 472 340 436 l 340 497 q 318 562 340 540 q 258 583 296 583 l 243 583 l 243 656 l 260 656 q 318 674 296 653 q 340 736 340 696 l 340 760 q 315 817 340 796 q 246 839 290 839 q 169 816 196 839 q 143 753 143 793 l 143 713 l 61 713 l 61 758 q 112 876 61 832 q 246 919 163 919 q 370 879 321 919 q 421 771 419 839 l 421 736 q 361 614 422 649 q 405 569 388 600 q 421 499 422 539 l 421 464 q 370 353 419 396 q 246 311 321 311 m 629 917 l 729 917 l 428 -3 l 326 -3 l 629 917 m 799 607 l 889 607 l 683 249 l 821 249 l 821 335 l 903 335 l 903 249 l 1006 249 l 1006 167 l 901 167 l 901 -4 l 819 -4 l 819 167 l 550 167 l 799 607 z "},"²":{"ha":474,"x_min":61,"x_max":413,"o":"m 75 433 q 117 553 75 510 q 249 615 160 596 q 314 651 296 625 q 332 729 332 676 l 332 754 q 308 818 332 799 q 238 838 285 838 q 169 816 196 838 q 143 751 143 794 l 143 699 l 61 699 l 61 756 q 113 876 61 833 q 238 918 164 918 q 364 878 315 918 q 413 761 413 839 l 413 721 q 374 598 413 646 q 265 535 336 550 q 179 499 201 522 q 157 432 157 476 l 157 378 l 394 378 l 394 297 l 75 297 l 75 433 z "},"³":{"ha":483,"x_min":61,"x_max":422,"o":"m 246 315 q 115 359 168 315 q 61 476 61 403 l 61 532 l 143 532 l 143 482 q 172 419 143 443 q 246 396 200 396 q 316 418 292 396 q 340 476 340 440 l 340 501 q 318 566 340 544 q 258 588 296 588 l 243 588 l 243 660 l 260 660 q 318 678 296 657 q 340 740 340 700 l 340 764 q 315 822 340 800 q 246 843 290 843 q 169 820 196 843 q 143 757 143 797 l 143 717 l 61 717 l 61 763 q 112 880 61 836 q 246 924 163 924 q 370 883 321 924 q 421 775 419 843 l 421 740 q 361 618 422 653 q 405 574 388 604 q 421 503 422 543 l 421 468 q 370 358 419 400 q 246 315 321 315 z "},"Á":{"ha":726,"x_min":61,"x_max":665,"o":"m 279 917 l 454 917 l 665 0 l 531 0 l 468 274 l 258 274 l 196 0 l 61 0 l 279 917 m 457 394 l 379 771 l 350 771 l 269 394 l 457 394 z "},"Ă":{"ha":726,"x_min":61,"x_max":665,"o":"m 279 917 l 454 917 l 665 0 l 531 0 l 468 274 l 258 274 l 196 0 l 61 0 l 279 917 m 457 394 l 379 771 l 350 771 l 269 394 l 457 394 z "},"Â":{"ha":726,"x_min":61,"x_max":665,"o":"m 279 917 l 454 917 l 665 0 l 531 0 l 468 274 l 258 274 l 196 0 l 61 0 l 279 917 m 457 394 l 379 771 l 350 771 l 269 394 l 457 394 z "},"Ä":{"ha":726,"x_min":61,"x_max":665,"o":"m 279 917 l 454 917 l 665 0 l 531 0 l 468 274 l 258 274 l 196 0 l 61 0 l 279 917 m 457 394 l 379 771 l 350 771 l 269 394 l 457 394 m 279 976 q 228 997 249 976 q 207 1047 207 1018 q 228 1097 207 1075 q 279 1118 249 1118 q 330 1097 310 1118 q 350 1047 350 1075 q 328 997 350 1018 q 279 976 307 976 m 376 1049 q 397 1097 376 1075 q 447 1119 418 1119 q 499 1098 479 1119 q 519 1049 519 1076 q 497 998 519 1019 q 447 976 475 976 q 397 998 418 976 q 376 1049 376 1019 z "},"À":{"ha":726,"x_min":61,"x_max":665,"o":"m 279 917 l 454 917 l 665 0 l 531 0 l 468 274 l 258 274 l 196 0 l 61 0 l 279 917 m 457 394 l 379 771 l 350 771 l 269 394 l 457 394 z "},"Ā":{"ha":726,"x_min":61,"x_max":665,"o":"m 279 917 l 454 917 l 665 0 l 531 0 l 468 274 l 258 274 l 196 0 l 61 0 l 279 917 m 457 394 l 379 771 l 350 771 l 269 394 l 457 394 z "},"Ą":{"ha":726,"x_min":61,"x_max":711,"o":"m 279 917 l 454 917 l 665 0 l 593 0 q 535 -35 554 -14 q 515 -78 515 -57 q 534 -117 515 -103 q 586 -132 553 -132 q 682 -110 628 -132 l 711 -187 q 563 -233 633 -233 q 469 -208 510 -233 q 410 -142 429 -183 q 396 -82 396 -111 q 426 6 396 -36 q 514 72 456 47 l 468 274 l 258 274 l 196 0 l 61 0 l 279 917 m 457 394 l 379 771 l 350 771 l 269 394 l 457 394 z "},"Å":{"ha":726,"x_min":61,"x_max":665,"o":"m 279 917 l 454 917 l 665 0 l 531 0 l 468 274 l 258 274 l 196 0 l 61 0 l 279 917 m 457 394 l 379 771 l 350 771 l 269 394 l 457 394 z "},"Ã":{"ha":726,"x_min":61,"x_max":665,"o":"m 279 917 l 454 917 l 665 0 l 531 0 l 468 274 l 258 274 l 196 0 l 61 0 l 279 917 m 457 394 l 379 771 l 350 771 l 269 394 l 457 394 z "},"Æ":{"ha":1043,"x_min":61,"x_max":983,"o":"m 271 917 l 438 917 l 539 458 l 539 917 l 983 917 l 983 778 l 650 778 l 650 524 l 968 524 l 968 393 l 650 393 l 650 135 l 983 135 l 983 0 l 511 0 l 451 274 l 250 274 l 190 0 l 61 0 l 271 917 m 440 394 l 367 771 l 338 771 l 261 394 l 440 394 z "},"Ć":{"ha":663,"x_min":61,"x_max":601,"o":"m 339 -14 q 210 14 274 -14 q 103 97 146 42 q 61 229 61 151 l 61 688 q 103 820 61 765 q 210 903 146 875 q 339 931 274 931 q 463 903 403 931 q 563 820 524 875 q 601 688 601 765 l 601 574 l 467 574 l 467 706 q 426 794 467 763 q 336 825 386 825 q 240 794 282 825 q 197 704 197 763 l 197 214 q 239 123 197 154 q 336 92 281 92 q 425 123 385 92 q 465 211 465 154 l 465 349 l 600 349 l 600 229 q 561 97 600 151 q 462 14 522 42 q 339 -14 401 -14 z "},"Č":{"ha":663,"x_min":61,"x_max":601,"o":"m 339 -14 q 210 14 274 -14 q 103 97 146 42 q 61 229 61 151 l 61 688 q 103 820 61 765 q 210 903 146 875 q 339 931 274 931 q 463 903 403 931 q 563 820 524 875 q 601 688 601 765 l 601 574 l 467 574 l 467 706 q 426 794 467 763 q 336 825 386 825 q 240 794 282 825 q 197 704 197 763 l 197 214 q 239 123 197 154 q 336 92 281 92 q 425 123 385 92 q 465 211 465 154 l 465 349 l 600 349 l 600 229 q 561 97 600 151 q 462 14 522 42 q 339 -14 401 -14 z "},"Ç":{"ha":663,"x_min":61,"x_max":601,"o":"m 210 -221 q 308 -210 279 -221 q 344 -178 336 -200 q 347 -165 347 -169 q 310 -117 347 -139 q 211 -87 274 -94 l 253 -1 q 116 81 171 22 q 61 229 61 139 l 61 688 q 103 820 61 765 q 210 903 146 875 q 339 931 274 931 q 463 903 403 931 q 563 820 524 875 q 601 688 601 765 l 601 574 l 467 574 l 467 706 q 426 794 467 763 q 336 825 386 825 q 240 794 282 825 q 197 704 197 763 l 197 214 q 239 123 197 154 q 336 92 281 92 q 425 123 385 92 q 465 211 465 154 l 465 349 l 600 349 l 600 229 q 566 104 600 157 q 478 22 532 51 q 365 -12 425 -7 l 346 -50 q 434 -101 404 -65 q 464 -181 464 -136 q 454 -231 464 -210 q 383 -305 435 -279 q 253 -331 331 -331 q 168 -324 219 -331 l 168 -219 l 210 -221 z "},"Ċ":{"ha":663,"x_min":61,"x_max":601,"o":"m 339 -14 q 210 14 274 -14 q 103 97 146 42 q 61 229 61 151 l 61 688 q 103 820 61 765 q 210 903 146 875 q 339 931 274 931 q 463 903 403 931 q 563 820 524 875 q 601 688 601 765 l 601 574 l 467 574 l 467 706 q 426 794 467 763 q 336 825 386 825 q 240 794 282 825 q 197 704 197 763 l 197 214 q 239 123 197 154 q 336 92 281 92 q 425 123 385 92 q 465 211 465 154 l 465 349 l 600 349 l 600 229 q 561 97 600 151 q 462 14 522 42 q 339 -14 401 -14 z "},"Ð":{"ha":781,"x_min":61,"x_max":719,"o":"m 185 394 l 61 394 l 61 515 l 185 515 l 185 917 l 443 917 q 572 889 508 917 q 678 806 636 861 q 719 674 719 751 l 719 243 q 678 110 719 165 q 572 28 636 56 q 443 0 508 0 l 185 0 l 185 394 m 439 106 q 539 140 496 106 q 582 239 582 175 l 582 679 q 540 777 582 743 q 439 811 497 811 l 318 811 l 318 515 l 481 515 l 481 394 l 318 394 l 318 107 l 439 106 z "},"Ď":{"ha":658,"x_min":61,"x_max":596,"o":"m 61 917 l 319 917 q 449 889 385 917 q 554 806 513 861 q 596 674 596 751 l 596 243 q 554 110 596 165 q 449 28 513 56 q 319 0 385 0 l 61 0 l 61 917 m 315 106 q 415 140 372 106 q 458 239 458 175 l 458 679 q 416 777 458 743 q 315 811 374 811 l 194 811 l 194 107 l 315 106 z "},"Đ":{"ha":775,"x_min":61,"x_max":719,"o":"m 185 394 l 61 394 l 61 515 l 185 515 l 185 917 l 443 917 q 572 889 508 917 q 678 806 636 861 q 719 674 719 751 l 719 243 q 678 110 719 165 q 572 28 636 56 q 443 0 508 0 l 185 0 l 185 394 m 439 106 q 539 140 496 106 q 582 239 582 175 l 582 679 q 540 777 582 743 q 439 811 497 811 l 318 811 l 318 515 l 481 515 l 481 394 l 318 394 l 318 107 l 439 106 z "},"É":{"ha":567,"x_min":61,"x_max":506,"o":"m 61 917 l 506 917 l 506 778 l 172 778 l 172 524 l 490 524 l 490 393 l 172 393 l 172 135 l 506 135 l 506 0 l 61 0 l 61 917 z "},"Ě":{"ha":567,"x_min":61,"x_max":506,"o":"m 61 917 l 506 917 l 506 778 l 172 778 l 172 524 l 490 524 l 490 393 l 172 393 l 172 135 l 506 135 l 506 0 l 61 0 l 61 917 z "},"Ê":{"ha":567,"x_min":61,"x_max":506,"o":"m 61 917 l 506 917 l 506 778 l 172 778 l 172 524 l 490 524 l 490 393 l 172 393 l 172 135 l 506 135 l 506 0 l 61 0 l 61 917 z "},"Ë":{"ha":567,"x_min":61,"x_max":506,"o":"m 61 917 l 506 917 l 506 778 l 172 778 l 172 524 l 490 524 l 490 393 l 172 393 l 172 135 l 506 135 l 506 0 l 61 0 l 61 917 m 197 976 q 146 997 167 976 q 125 1047 125 1018 q 146 1097 125 1075 q 197 1118 167 1118 q 248 1097 228 1118 q 268 1047 268 1075 q 247 997 268 1018 q 197 976 225 976 m 294 1049 q 315 1097 294 1075 q 365 1119 336 1119 q 417 1098 397 1119 q 438 1049 438 1076 q 415 998 438 1019 q 365 976 393 976 q 315 998 336 976 q 294 1049 294 1019 z "},"Ė":{"ha":567,"x_min":61,"x_max":506,"o":"m 61 917 l 506 917 l 506 778 l 172 778 l 172 524 l 490 524 l 490 393 l 172 393 l 172 135 l 506 135 l 506 0 l 61 0 l 61 917 z "},"È":{"ha":567,"x_min":61,"x_max":506,"o":"m 61 917 l 506 917 l 506 778 l 172 778 l 172 524 l 490 524 l 490 393 l 172 393 l 172 135 l 506 135 l 506 0 l 61 0 l 61 917 z "},"Ē":{"ha":567,"x_min":61,"x_max":514,"o":"m 61 917 l 506 917 l 506 778 l 172 778 l 172 524 l 490 524 l 490 393 l 172 393 l 172 135 l 506 135 l 506 0 l 61 0 l 61 917 z "},"Ę":{"ha":631,"x_min":61,"x_max":569,"o":"m 61 917 l 506 917 l 506 778 l 172 778 l 172 524 l 490 524 l 490 393 l 172 393 l 172 135 l 506 135 l 506 0 l 479 0 q 400 -36 426 -12 q 374 -86 374 -60 q 392 -126 374 -111 q 444 -140 411 -140 q 540 -118 486 -140 l 569 -196 q 421 -242 492 -242 q 328 -217 368 -242 q 268 -150 288 -192 q 254 -90 254 -119 q 286 0 254 -43 l 61 0 l 61 917 z "},"Ğ":{"ha":663,"x_min":61,"x_max":601,"o":"m 313 -11 q 191 16 249 -11 q 97 97 133 43 q 61 229 61 151 l 61 688 q 101 820 61 765 q 204 903 140 875 q 339 931 268 931 q 468 903 408 931 q 565 820 528 875 q 601 688 601 765 l 601 603 l 467 603 l 467 703 q 428 794 467 763 q 336 825 390 825 q 236 794 276 825 q 196 701 196 763 l 196 221 q 238 129 196 161 q 336 97 281 97 q 426 128 386 97 q 467 218 467 160 l 467 385 l 396 385 l 396 506 l 601 506 l 601 0 l 483 0 l 483 81 q 313 -11 431 -11 z "},"Ģ":{"ha":663,"x_min":61,"x_max":601,"o":"m 313 -11 q 191 16 249 -11 q 97 97 133 43 q 61 229 61 151 l 61 688 q 101 820 61 765 q 204 903 140 875 q 339 931 268 931 q 468 903 408 931 q 565 820 528 875 q 601 688 601 765 l 601 603 l 467 603 l 467 703 q 428 794 467 763 q 336 825 390 825 q 236 794 276 825 q 196 701 196 763 l 196 221 q 238 129 196 161 q 336 97 281 97 q 426 128 386 97 q 467 218 467 160 l 467 385 l 396 385 l 396 506 l 601 506 l 601 0 l 483 0 l 483 81 q 313 -11 431 -11 z "},"Ġ":{"ha":663,"x_min":61,"x_max":601,"o":"m 313 -11 q 191 16 249 -11 q 97 97 133 43 q 61 229 61 151 l 61 688 q 101 820 61 765 q 204 903 140 875 q 339 931 268 931 q 468 903 408 931 q 565 820 528 875 q 601 688 601 765 l 601 603 l 467 603 l 467 703 q 428 794 467 763 q 336 825 390 825 q 236 794 276 825 q 196 701 196 763 l 196 221 q 238 129 196 161 q 336 97 281 97 q 426 128 386 97 q 467 218 467 160 l 467 385 l 396 385 l 396 506 l 601 506 l 601 0 l 483 0 l 483 81 q 313 -11 431 -11 z "},"Ħ":{"ha":724,"x_min":61,"x_max":663,"o":"m 99 660 l 61 660 l 61 782 l 99 782 l 99 917 l 221 917 l 221 782 l 499 782 l 499 917 l 621 917 l 621 782 l 663 782 l 663 660 l 621 660 l 621 0 l 499 0 l 499 400 l 221 400 l 221 0 l 99 0 l 99 660 m 499 510 l 499 671 l 221 671 l 221 510 l 499 510 z "},"Í":{"ha":292,"x_min":33,"x_max":240,"o":"m 78 917 l 210 917 l 210 0 l 78 0 l 78 917 z "},"Î":{"ha":346,"x_min":-12,"x_max":347,"o":"m 111 917 l 243 917 l 243 0 l 111 0 l 111 917 z "},"Ï":{"ha":340,"x_min":11,"x_max":324,"o":"m 110 917 l 242 917 l 242 0 l 110 0 l 110 917 m 83 965 q 32 986 53 965 q 11 1036 11 1007 q 32 1085 11 1064 q 83 1107 53 1107 q 134 1085 114 1107 q 154 1036 154 1064 q 133 986 154 1007 q 83 965 111 965 m 181 1038 q 201 1086 181 1064 q 251 1108 222 1108 q 303 1087 283 1108 q 324 1038 324 1065 q 301 987 324 1008 q 251 965 279 965 q 201 987 222 965 q 181 1038 181 1008 z "},"İ":{"ha":332,"x_min":61,"x_max":242,"o":"m 110 917 l 242 917 l 242 0 l 110 0 l 110 917 m 135 958 q 83 981 104 958 q 61 1032 61 1003 q 83 1083 61 1060 q 135 1107 106 1107 q 189 1084 168 1107 q 210 1032 210 1061 q 188 981 210 1003 q 135 958 165 958 z "},"Ì":{"ha":313,"x_min":26,"x_max":251,"o":"m 119 917 l 251 917 l 251 0 l 119 0 l 119 917 z "},"Ī":{"ha":563,"x_min":86,"x_max":526,"o":"m 236 917 l 368 917 l 368 0 l 236 0 l 236 917 z "},"Į":{"ha":439,"x_min":50,"x_max":365,"o":"m 365 -208 q 217 -254 288 -254 q 124 -229 164 -254 q 64 -162 83 -204 q 50 -103 50 -136 q 85 -8 50 -53 q 189 60 119 36 l 189 917 l 321 917 l 321 0 l 293 0 l 294 -8 q 201 -44 232 -19 q 169 -99 169 -69 q 188 -138 169 -124 q 240 -153 207 -153 q 336 -131 282 -153 l 365 -208 z "},"Ķ":{"ha":626,"x_min":61,"x_max":564,"o":"m 61 917 l 193 917 l 193 503 l 208 503 l 394 917 l 558 917 l 283 458 l 564 0 l 400 0 l 208 411 l 193 411 l 193 0 l 61 0 l 61 917 z "},"Ĺ":{"ha":499,"x_min":61,"x_max":438,"o":"m 61 917 l 193 917 l 193 119 l 438 119 l 438 0 l 61 0 l 61 917 z "},"Ľ":{"ha":499,"x_min":61,"x_max":468,"o":"m 61 917 l 193 917 l 193 119 l 438 119 l 438 0 l 61 0 l 61 917 z "},"Ļ":{"ha":499,"x_min":61,"x_max":438,"o":"m 61 917 l 193 917 l 193 119 l 438 119 l 438 0 l 61 0 l 61 917 z "},"Ł":{"ha":619,"x_min":61,"x_max":543,"o":"m 167 428 l 103 404 l 61 518 l 167 557 l 167 917 l 299 917 l 299 604 l 456 661 l 497 547 l 299 475 l 299 119 l 543 119 l 543 0 l 167 0 l 167 428 z "},"Ń":{"ha":725,"x_min":61,"x_max":664,"o":"m 61 917 l 260 917 l 513 189 l 532 189 l 532 917 l 664 917 l 664 0 l 467 0 l 215 706 l 194 706 l 194 0 l 61 0 l 61 917 z "},"Ň":{"ha":725,"x_min":61,"x_max":664,"o":"m 61 917 l 260 917 l 513 189 l 532 189 l 532 917 l 664 917 l 664 0 l 467 0 l 215 706 l 194 706 l 194 0 l 61 0 l 61 917 z "},"Ņ":{"ha":725,"x_min":61,"x_max":664,"o":"m 61 917 l 260 917 l 513 189 l 532 189 l 532 917 l 664 917 l 664 0 l 467 0 l 215 706 l 194 706 l 194 0 l 61 0 l 61 917 z "},"Ñ":{"ha":725,"x_min":61,"x_max":664,"o":"m 61 917 l 260 917 l 513 189 l 532 189 l 532 917 l 664 917 l 664 0 l 467 0 l 215 706 l 194 706 l 194 0 l 61 0 l 61 917 z "},"Ŋ":{"ha":701,"x_min":61,"x_max":640,"o":"m 363 -122 q 476 -91 431 -122 q 522 0 521 -60 l 481 0 l 203 664 l 182 664 l 182 0 l 61 0 l 61 917 l 222 917 l 500 225 l 519 225 l 519 917 l 640 917 l 640 0 q 571 -165 639 -101 q 396 -228 503 -228 q 363 -226 374 -228 l 363 -122 z "},"Ó":{"ha":664,"x_min":61,"x_max":601,"o":"m 339 -14 q 202 13 265 -14 q 100 95 139 40 q 61 229 61 150 l 61 688 q 99 822 61 767 q 200 903 138 876 q 336 931 263 931 q 467 903 407 931 q 565 822 528 876 q 601 688 601 767 l 601 229 q 565 95 601 150 q 469 13 529 40 q 339 -14 410 -14 m 196 215 q 233 122 196 153 q 336 92 271 92 q 432 122 396 92 q 468 213 468 151 l 468 703 q 431 794 468 764 q 335 825 394 825 q 233 794 269 825 q 196 701 196 764 l 196 215 z "},"Ô":{"ha":664,"x_min":61,"x_max":601,"o":"m 339 -14 q 202 13 265 -14 q 100 95 139 40 q 61 229 61 150 l 61 688 q 99 822 61 767 q 200 903 138 876 q 336 931 263 931 q 467 903 407 931 q 565 822 528 876 q 601 688 601 767 l 601 229 q 565 95 601 150 q 469 13 529 40 q 339 -14 410 -14 m 196 215 q 233 122 196 153 q 336 92 271 92 q 432 122 396 92 q 468 213 468 151 l 468 703 q 431 794 468 764 q 335 825 394 825 q 233 794 269 825 q 196 701 196 764 l 196 215 z "},"Ö":{"ha":664,"x_min":61,"x_max":601,"o":"m 339 -14 q 202 13 265 -14 q 100 95 139 40 q 61 229 61 150 l 61 688 q 99 822 61 767 q 200 903 138 876 q 336 931 263 931 q 467 903 407 931 q 565 822 528 876 q 601 688 601 767 l 601 229 q 565 95 601 150 q 469 13 529 40 q 339 -14 410 -14 m 196 215 q 233 122 196 153 q 336 92 271 92 q 432 122 396 92 q 468 213 468 151 l 468 703 q 431 794 468 764 q 335 825 394 825 q 233 794 269 825 q 196 701 196 764 l 196 215 m 253 989 q 201 1010 222 989 q 181 1060 181 1031 q 201 1109 181 1088 q 253 1131 222 1131 q 303 1109 283 1131 q 324 1060 324 1088 q 302 1010 324 1031 q 253 989 281 989 m 350 1061 q 371 1110 350 1088 q 421 1132 392 1132 q 473 1110 453 1132 q 493 1061 493 1089 q 471 1010 493 1032 q 421 989 449 989 q 371 1010 392 989 q 350 1061 350 1032 z "},"Ò":{"ha":664,"x_min":61,"x_max":601,"o":"m 339 -14 q 202 13 265 -14 q 100 95 139 40 q 61 229 61 150 l 61 688 q 99 822 61 767 q 200 903 138 876 q 336 931 263 931 q 467 903 407 931 q 565 822 528 876 q 601 688 601 767 l 601 229 q 565 95 601 150 q 469 13 529 40 q 339 -14 410 -14 m 196 215 q 233 122 196 153 q 336 92 271 92 q 432 122 396 92 q 468 213 468 151 l 468 703 q 431 794 468 764 q 335 825 394 825 q 233 794 269 825 q 196 701 196 764 l 196 215 z "},"Ő":{"ha":664,"x_min":61,"x_max":601,"o":"m 339 -14 q 202 13 265 -14 q 100 95 139 40 q 61 229 61 150 l 61 688 q 99 822 61 767 q 200 903 138 876 q 336 931 263 931 q 467 903 407 931 q 565 822 528 876 q 601 688 601 767 l 601 229 q 565 95 601 150 q 469 13 529 40 q 339 -14 410 -14 m 196 215 q 233 122 196 153 q 336 92 271 92 q 432 122 396 92 q 468 213 468 151 l 468 703 q 431 794 468 764 q 335 825 394 825 q 233 794 269 825 q 196 701 196 764 l 196 215 z "},"Ō":{"ha":664,"x_min":61,"x_max":601,"o":"m 339 -14 q 202 13 265 -14 q 100 95 139 40 q 61 229 61 150 l 61 688 q 99 822 61 767 q 200 903 138 876 q 336 931 263 931 q 467 903 407 931 q 565 822 528 876 q 601 688 601 767 l 601 229 q 565 95 601 150 q 469 13 529 40 q 339 -14 410 -14 m 196 215 q 233 122 196 153 q 336 92 271 92 q 432 122 396 92 q 468 213 468 151 l 468 703 q 431 794 468 764 q 335 825 394 825 q 233 794 269 825 q 196 701 196 764 l 196 215 z "},"Ø":{"ha":718,"x_min":61,"x_max":657,"o":"m 339 -14 q 304 -12 315 -14 l 272 -104 l 143 -104 l 186 21 q 95 103 129 50 q 61 229 61 157 l 61 688 q 99 822 61 767 q 200 903 138 876 q 336 931 263 931 q 490 892 425 931 l 529 1004 l 657 1004 l 582 789 q 601 688 601 743 l 601 229 q 565 95 601 150 q 469 13 529 40 q 339 -14 410 -14 m 196 215 q 225 131 196 163 l 449 774 q 335 825 415 825 q 233 794 269 825 q 196 701 196 764 l 196 215 m 340 92 q 433 123 397 93 q 468 213 468 153 l 468 460 l 340 92 z "},"Õ":{"ha":664,"x_min":61,"x_max":601,"o":"m 339 -14 q 202 13 265 -14 q 100 95 139 40 q 61 229 61 150 l 61 688 q 99 822 61 767 q 200 903 138 876 q 336 931 263 931 q 467 903 407 931 q 565 822 528 876 q 601 688 601 767 l 601 229 q 565 95 601 150 q 469 13 529 40 q 339 -14 410 -14 m 196 215 q 233 122 196 153 q 336 92 271 92 q 432 122 396 92 q 468 213 468 151 l 468 703 q 431 794 468 764 q 335 825 394 825 q 233 794 269 825 q 196 701 196 764 l 196 215 z "},"Œ":{"ha":986,"x_min":61,"x_max":925,"o":"m 339 -14 q 202 13 265 -14 q 100 95 139 40 q 61 229 61 150 l 61 688 q 99 822 61 767 q 200 903 138 876 q 336 931 263 931 q 481 897 417 931 l 481 917 l 925 917 l 925 778 l 592 778 l 592 761 q 601 688 601 731 l 601 524 l 910 524 l 910 393 l 601 393 l 601 229 q 592 154 601 188 l 592 135 l 925 135 l 925 0 l 481 0 l 481 19 q 339 -14 418 -14 m 196 215 q 233 122 196 153 q 336 92 271 92 q 432 122 396 92 q 468 213 468 151 l 468 703 q 431 794 468 764 q 335 825 394 825 q 233 794 269 825 q 196 701 196 764 l 196 215 z "},"Þ":{"ha":632,"x_min":61,"x_max":571,"o":"m 61 1008 l 186 1008 l 186 885 l 304 885 q 496 822 421 885 q 571 643 571 760 l 571 401 q 497 223 571 286 q 307 160 422 160 l 186 160 l 186 0 l 61 0 l 61 1008 m 307 281 q 411 314 374 281 q 449 413 449 347 l 449 632 q 410 731 449 697 q 304 764 372 764 l 186 764 l 186 281 l 307 281 z "},"Ŕ":{"ha":657,"x_min":61,"x_max":594,"o":"m 61 917 l 351 917 q 533 847 472 917 q 594 658 593 778 q 499 447 592 497 q 589 251 589 400 l 589 0 l 453 0 l 453 231 q 427 337 453 299 q 326 375 401 375 l 194 375 l 194 0 l 61 0 l 61 917 m 325 482 q 427 520 401 481 q 453 642 453 560 q 427 771 453 731 q 331 811 401 811 l 193 810 l 193 483 l 325 482 z "},"Ř":{"ha":657,"x_min":61,"x_max":594,"o":"m 61 917 l 351 917 q 533 847 472 917 q 594 658 593 778 q 499 447 592 497 q 589 251 589 400 l 589 0 l 453 0 l 453 231 q 427 337 453 299 q 326 375 401 375 l 194 375 l 194 0 l 61 0 l 61 917 m 325 482 q 427 520 401 481 q 453 642 453 560 q 427 771 453 731 q 331 811 401 811 l 193 810 l 193 483 l 325 482 z "},"Ŗ":{"ha":657,"x_min":61,"x_max":594,"o":"m 61 917 l 351 917 q 533 847 472 917 q 594 658 593 778 q 499 447 592 497 q 589 251 589 400 l 589 0 l 453 0 l 453 231 q 427 337 453 299 q 326 375 401 375 l 194 375 l 194 0 l 61 0 l 61 917 m 325 482 q 427 520 401 481 q 453 642 453 560 q 427 771 453 731 q 331 811 401 811 l 193 810 l 193 483 l 325 482 z "},"Ś":{"ha":668,"x_min":61,"x_max":606,"o":"m 340 -14 q 208 15 269 -14 q 108 100 146 44 q 71 229 71 156 l 71 297 l 204 297 l 204 211 q 247 124 204 157 q 343 92 289 92 q 474 204 474 92 l 474 263 q 431 359 474 325 q 325 401 389 393 q 140 467 218 411 q 61 633 61 522 l 61 692 q 99 824 61 769 q 196 904 136 878 q 325 931 256 931 q 451 903 390 931 q 550 820 511 875 q 589 688 589 765 l 589 614 l 457 614 l 457 704 q 417 794 457 763 q 325 825 376 825 q 231 797 267 825 q 194 707 194 768 l 194 650 q 238 552 194 583 q 354 511 282 521 q 532 446 458 501 q 606 283 606 390 l 606 221 q 529 47 606 107 q 340 -14 453 -14 z "},"Š":{"ha":668,"x_min":61,"x_max":606,"o":"m 340 -14 q 208 15 269 -14 q 108 100 146 44 q 71 229 71 156 l 71 297 l 204 297 l 204 211 q 247 124 204 157 q 343 92 289 92 q 474 204 474 92 l 474 263 q 431 359 474 325 q 325 401 389 393 q 140 467 218 411 q 61 633 61 522 l 61 692 q 99 824 61 769 q 196 904 136 878 q 325 931 256 931 q 451 903 390 931 q 550 820 511 875 q 589 688 589 765 l 589 614 l 457 614 l 457 704 q 417 794 457 763 q 325 825 376 825 q 231 797 267 825 q 194 707 194 768 l 194 650 q 238 552 194 583 q 354 511 282 521 q 532 446 458 501 q 606 283 606 390 l 606 221 q 529 47 606 107 q 340 -14 453 -14 z "},"Ş":{"ha":668,"x_min":61,"x_max":606,"o":"m 249 -224 q 347 -213 318 -224 q 383 -181 375 -203 q 386 -168 386 -172 q 349 -119 386 -142 q 250 -90 313 -97 l 289 -10 q 133 69 196 6 q 71 229 71 133 l 71 297 l 204 297 l 204 211 q 247 124 204 157 q 343 92 289 92 q 474 204 474 92 l 474 263 q 431 359 474 325 q 325 401 389 393 q 140 467 218 411 q 61 633 61 522 l 61 692 q 99 824 61 769 q 196 904 136 878 q 325 931 256 931 q 451 903 390 931 q 550 820 511 875 q 589 688 589 765 l 589 614 l 457 614 l 457 704 q 417 794 457 763 q 325 825 376 825 q 231 797 267 825 q 194 707 194 768 l 194 650 q 238 552 194 583 q 354 511 282 521 q 532 446 458 501 q 606 283 606 390 l 606 221 q 551 67 606 125 q 408 -8 496 8 l 385 -53 q 473 -103 443 -68 q 503 -183 503 -139 q 493 -233 503 -212 q 422 -308 474 -282 q 292 -333 369 -333 q 207 -326 258 -333 l 207 -222 l 249 -224 z "},"Ș":{"ha":668,"x_min":61,"x_max":606,"o":"m 340 -14 q 208 15 269 -14 q 108 100 146 44 q 71 229 71 156 l 71 297 l 204 297 l 204 211 q 247 124 204 157 q 343 92 289 92 q 474 204 474 92 l 474 263 q 431 359 474 325 q 325 401 389 393 q 140 467 218 411 q 61 633 61 522 l 61 692 q 99 824 61 769 q 196 904 136 878 q 325 931 256 931 q 451 903 390 931 q 550 820 511 875 q 589 688 589 765 l 589 614 l 457 614 l 457 704 q 417 794 457 763 q 325 825 376 825 q 231 797 267 825 q 194 707 194 768 l 194 650 q 238 552 194 583 q 354 511 282 521 q 532 446 458 501 q 606 283 606 390 l 606 221 q 529 47 606 107 q 340 -14 453 -14 z "},"ẞ":{"ha":656,"x_min":61,"x_max":594,"o":"m 61 917 l 594 917 l 443 475 q 526 387 497 444 q 556 256 556 329 q 530 131 556 190 q 444 35 504 72 q 289 0 385 -1 l 289 121 q 410 158 372 121 q 449 257 449 196 q 409 365 449 329 q 289 400 369 400 l 289 525 l 346 521 l 440 794 l 183 793 l 185 0 l 61 0 l 61 917 z "},"Ŧ":{"ha":650,"x_min":61,"x_max":589,"o":"m 260 414 l 124 414 l 124 535 l 260 535 l 260 779 l 61 779 l 61 917 l 589 917 l 589 779 l 392 779 l 392 535 l 543 535 l 543 414 l 392 414 l 392 0 l 260 0 l 260 414 z "},"Ť":{"ha":650,"x_min":61,"x_max":589,"o":"m 260 779 l 61 779 l 61 917 l 589 917 l 589 779 l 392 779 l 392 0 l 260 0 l 260 779 z "},"Ţ":{"ha":650,"x_min":61,"x_max":589,"o":"m 186 -224 q 284 -213 256 -224 q 321 -181 313 -203 q 324 -168 324 -172 q 287 -119 324 -142 q 188 -90 250 -97 l 253 44 l 260 44 l 260 779 l 61 779 l 61 917 l 589 917 l 589 779 l 392 779 l 392 0 l 350 0 l 322 -53 q 410 -103 381 -68 q 440 -183 440 -139 q 431 -233 440 -212 q 359 -308 411 -282 q 229 -333 307 -333 q 144 -326 196 -333 l 144 -222 l 186 -224 z "},"Ț":{"ha":650,"x_min":61,"x_max":589,"o":"m 260 779 l 61 779 l 61 917 l 589 917 l 589 779 l 392 779 l 392 0 l 260 0 l 260 779 z "},"Ú":{"ha":661,"x_min":61,"x_max":600,"o":"m 335 -14 q 203 15 267 -14 q 101 99 140 43 q 61 232 61 154 l 61 917 l 193 917 l 193 213 q 233 119 193 150 q 333 89 272 89 q 427 119 389 89 q 465 210 465 150 l 464 917 l 599 917 l 600 229 q 562 97 600 151 q 463 14 524 42 q 335 -14 401 -14 z "},"Û":{"ha":661,"x_min":61,"x_max":600,"o":"m 335 -14 q 203 15 267 -14 q 101 99 140 43 q 61 232 61 154 l 61 917 l 193 917 l 193 213 q 233 119 193 150 q 333 89 272 89 q 427 119 389 89 q 465 210 465 150 l 464 917 l 599 917 l 600 229 q 562 97 600 151 q 463 14 524 42 q 335 -14 401 -14 z "},"Ü":{"ha":661,"x_min":61,"x_max":600,"o":"m 335 -14 q 203 15 267 -14 q 101 99 140 43 q 61 232 61 154 l 61 917 l 193 917 l 193 213 q 233 119 193 150 q 333 89 272 89 q 427 119 389 89 q 465 210 465 150 l 464 917 l 599 917 l 600 229 q 562 97 600 151 q 463 14 524 42 q 335 -14 401 -14 m 247 979 q 196 1000 217 979 q 175 1050 175 1021 q 196 1099 175 1078 q 247 1121 217 1121 q 298 1099 278 1121 q 318 1050 318 1078 q 297 1000 318 1021 q 247 979 275 979 m 344 1051 q 365 1100 344 1078 q 415 1122 386 1122 q 467 1101 447 1122 q 488 1051 488 1079 q 465 1001 488 1022 q 415 979 443 979 q 365 1001 386 979 q 344 1051 344 1022 z "},"Ù":{"ha":661,"x_min":61,"x_max":600,"o":"m 335 -14 q 203 15 267 -14 q 101 99 140 43 q 61 232 61 154 l 61 917 l 193 917 l 193 213 q 233 119 193 150 q 333 89 272 89 q 427 119 389 89 q 465 210 465 150 l 464 917 l 599 917 l 600 229 q 562 97 600 151 q 463 14 524 42 q 335 -14 401 -14 z "},"Ű":{"ha":661,"x_min":61,"x_max":600,"o":"m 335 -14 q 203 15 267 -14 q 101 99 140 43 q 61 232 61 154 l 61 917 l 193 917 l 193 213 q 233 119 193 150 q 333 89 272 89 q 427 119 389 89 q 465 210 465 150 l 464 917 l 599 917 l 600 229 q 562 97 600 151 q 463 14 524 42 q 335 -14 401 -14 z "},"Ū":{"ha":661,"x_min":61,"x_max":600,"o":"m 335 -14 q 203 15 267 -14 q 101 99 140 43 q 61 232 61 154 l 61 917 l 193 917 l 193 213 q 233 119 193 150 q 333 89 272 89 q 427 119 389 89 q 465 210 465 150 l 464 917 l 599 917 l 600 229 q 562 97 600 151 q 463 14 524 42 q 335 -14 401 -14 z "},"Ų":{"ha":661,"x_min":61,"x_max":600,"o":"m 457 -217 q 308 -262 379 -262 q 215 -237 256 -262 q 156 -171 175 -212 q 142 -111 142 -144 q 158 -45 142 -78 q 207 13 175 -12 q 101 98 142 42 q 61 232 61 154 l 61 917 l 193 917 l 193 213 q 233 119 193 150 q 333 89 272 89 q 427 119 389 89 q 465 210 465 150 l 464 917 l 599 917 l 600 229 q 538 67 600 129 q 385 -10 476 6 l 386 -17 q 292 -53 324 -28 q 261 -107 261 -78 q 280 -147 261 -132 q 332 -161 299 -161 q 428 -139 374 -161 l 457 -217 z "},"Ů":{"ha":661,"x_min":61,"x_max":600,"o":"m 335 -14 q 203 15 267 -14 q 101 99 140 43 q 61 232 61 154 l 61 917 l 193 917 l 193 213 q 233 119 193 150 q 333 89 272 89 q 427 119 389 89 q 465 210 465 150 l 464 917 l 599 917 l 600 229 q 562 97 600 151 q 463 14 524 42 q 335 -14 401 -14 z "},"Ẃ":{"ha":1060,"x_min":44,"x_max":1007,"o":"m 44 917 l 185 917 l 310 131 l 340 131 l 458 917 l 604 917 l 710 131 l 742 131 l 868 917 l 1007 917 l 824 0 l 639 0 l 529 675 l 413 0 l 228 0 l 44 917 z "},"Ŵ":{"ha":1060,"x_min":44,"x_max":1007,"o":"m 44 917 l 185 917 l 310 131 l 340 131 l 458 917 l 604 917 l 710 131 l 742 131 l 868 917 l 1007 917 l 824 0 l 639 0 l 529 675 l 413 0 l 228 0 l 44 917 z "},"Ẅ":{"ha":1060,"x_min":44,"x_max":1007,"o":"m 44 917 l 185 917 l 310 131 l 340 131 l 458 917 l 604 917 l 710 131 l 742 131 l 868 917 l 1007 917 l 824 0 l 639 0 l 529 675 l 413 0 l 228 0 l 44 917 m 457 1008 q 406 1029 426 1008 q 385 1079 385 1050 q 406 1128 385 1107 q 457 1150 426 1150 q 508 1128 488 1150 q 528 1079 528 1107 q 506 1029 528 1050 q 457 1008 485 1008 m 554 1081 q 575 1129 554 1107 q 625 1151 596 1151 q 677 1130 657 1151 q 697 1081 697 1108 q 675 1030 697 1051 q 625 1008 653 1008 q 575 1030 596 1008 q 554 1081 554 1051 z "},"Ẁ":{"ha":1060,"x_min":44,"x_max":1007,"o":"m 44 917 l 185 917 l 310 131 l 340 131 l 458 917 l 604 917 l 710 131 l 742 131 l 868 917 l 1007 917 l 824 0 l 639 0 l 529 675 l 413 0 l 228 0 l 44 917 z "},"Ý":{"ha":731,"x_min":61,"x_max":668,"o":"m 307 431 l 61 917 l 222 917 l 371 507 l 385 507 l 521 917 l 668 917 l 440 432 l 440 0 l 308 0 l 307 431 z "},"Ŷ":{"ha":731,"x_min":61,"x_max":668,"o":"m 307 431 l 61 917 l 222 917 l 371 507 l 385 507 l 521 917 l 668 917 l 440 432 l 440 0 l 308 0 l 307 431 z "},"Ÿ":{"ha":731,"x_min":61,"x_max":668,"o":"m 307 431 l 61 917 l 222 917 l 371 507 l 385 507 l 521 917 l 668 917 l 440 432 l 440 0 l 308 0 l 307 431 m 275 972 q 224 993 244 972 q 203 1043 203 1014 q 224 1092 203 1071 q 275 1114 244 1114 q 326 1092 306 1114 q 346 1043 346 1071 q 324 993 346 1014 q 275 972 303 972 m 372 1044 q 393 1093 372 1071 q 443 1115 414 1115 q 495 1094 475 1115 q 515 1044 515 1072 q 493 994 515 1015 q 443 972 471 972 q 393 994 414 972 q 372 1044 372 1015 z "},"Ỳ":{"ha":731,"x_min":61,"x_max":668,"o":"m 307 431 l 61 917 l 222 917 l 371 507 l 385 507 l 521 917 l 668 917 l 440 432 l 440 0 l 308 0 l 307 431 z "},"Ź":{"ha":650,"x_min":61,"x_max":589,"o":"m 63 92 l 436 781 l 61 781 l 61 917 l 589 917 l 589 811 l 214 121 l 579 121 l 578 0 l 63 0 l 63 92 z "},"Ž":{"ha":650,"x_min":61,"x_max":589,"o":"m 63 92 l 436 781 l 61 781 l 61 917 l 589 917 l 589 811 l 214 121 l 579 121 l 578 0 l 63 0 l 63 92 z "},"Ż":{"ha":650,"x_min":61,"x_max":589,"o":"m 63 92 l 436 781 l 61 781 l 61 917 l 589 917 l 589 811 l 214 121 l 579 121 l 578 0 l 63 0 l 63 92 z "},"á":{"ha":726,"x_min":61,"x_max":665,"o":"m 279 917 l 454 917 l 665 0 l 531 0 l 468 274 l 258 274 l 196 0 l 61 0 l 279 917 m 457 394 l 379 771 l 350 771 l 269 394 l 457 394 z "},"ă":{"ha":726,"x_min":61,"x_max":665,"o":"m 279 917 l 454 917 l 665 0 l 531 0 l 468 274 l 258 274 l 196 0 l 61 0 l 279 917 m 457 394 l 379 771 l 350 771 l 269 394 l 457 394 z "},"â":{"ha":726,"x_min":61,"x_max":665,"o":"m 279 917 l 454 917 l 665 0 l 531 0 l 468 274 l 258 274 l 196 0 l 61 0 l 279 917 m 457 394 l 379 771 l 350 771 l 269 394 l 457 394 z "},"ä":{"ha":726,"x_min":61,"x_max":665,"o":"m 279 917 l 454 917 l 665 0 l 531 0 l 468 274 l 258 274 l 196 0 l 61 0 l 279 917 m 457 394 l 379 771 l 350 771 l 269 394 l 457 394 m 278 983 q 226 1004 247 983 q 206 1054 206 1025 q 226 1103 206 1082 q 278 1125 247 1125 q 328 1103 308 1125 q 349 1054 349 1082 q 327 1004 349 1025 q 278 983 306 983 m 375 1056 q 396 1104 375 1082 q 446 1126 417 1126 q 498 1105 478 1126 q 518 1056 518 1083 q 496 1005 518 1026 q 446 983 474 983 q 396 1005 417 983 q 375 1056 375 1026 z "},"à":{"ha":726,"x_min":61,"x_max":665,"o":"m 279 917 l 454 917 l 665 0 l 531 0 l 468 274 l 258 274 l 196 0 l 61 0 l 279 917 m 457 394 l 379 771 l 350 771 l 269 394 l 457 394 z "},"ā":{"ha":726,"x_min":61,"x_max":665,"o":"m 279 917 l 454 917 l 665 0 l 531 0 l 468 274 l 258 274 l 196 0 l 61 0 l 279 917 m 457 394 l 379 771 l 350 771 l 269 394 l 457 394 z "},"ą":{"ha":772,"x_min":61,"x_max":710,"o":"m 710 -196 q 561 -242 632 -242 q 468 -217 508 -242 q 408 -150 428 -192 q 394 -90 394 -119 q 425 -2 394 -44 q 515 65 456 40 l 468 274 l 258 274 l 196 0 l 61 0 l 279 917 l 454 917 l 665 0 l 619 0 q 540 -36 567 -12 q 514 -86 514 -60 q 533 -126 514 -111 q 585 -140 551 -140 q 681 -118 626 -140 l 710 -196 m 457 394 l 379 771 l 350 771 l 269 394 l 457 394 z "},"å":{"ha":726,"x_min":61,"x_max":665,"o":"m 279 917 l 454 917 l 665 0 l 531 0 l 468 274 l 258 274 l 196 0 l 61 0 l 279 917 m 457 394 l 379 771 l 350 771 l 269 394 l 457 394 z "},"ã":{"ha":726,"x_min":61,"x_max":665,"o":"m 279 917 l 454 917 l 665 0 l 531 0 l 468 274 l 258 274 l 196 0 l 61 0 l 279 917 m 168 985 q 215 1091 179 1058 q 296 1124 250 1124 q 367 1103 325 1124 q 382 1097 374 1100 q 399 1092 390 1093 q 421 1089 413 1089 q 458 1126 453 1089 l 543 1126 q 515 1028 539 1063 q 454 994 490 994 q 415 999 433 994 q 369 1014 396 1004 l 336 1026 q 313 1029 328 1029 q 278 1018 292 1029 q 261 985 264 1007 l 168 985 m 457 394 l 379 771 l 350 771 l 269 394 l 457 394 z "},"æ":{"ha":1068,"x_min":61,"x_max":1007,"o":"m 281 899 l 457 899 l 563 453 l 563 915 l 1007 915 l 1007 776 l 674 776 l 674 522 l 992 522 l 992 392 l 674 392 l 674 133 l 1007 133 l 1007 -1 l 563 -1 l 563 0 l 535 0 l 471 268 l 260 268 l 197 0 l 61 0 l 281 899 m 460 386 l 382 756 l 353 756 l 271 386 l 460 386 z "},"ć":{"ha":663,"x_min":61,"x_max":601,"o":"m 339 -14 q 210 14 274 -14 q 103 97 146 42 q 61 229 61 151 l 61 688 q 103 820 61 765 q 210 903 146 875 q 339 931 274 931 q 463 903 403 931 q 563 820 524 875 q 601 688 601 765 l 601 574 l 467 574 l 467 706 q 426 794 467 763 q 336 825 386 825 q 240 794 282 825 q 197 704 197 763 l 197 214 q 239 123 197 154 q 336 92 281 92 q 425 123 385 92 q 465 211 465 154 l 465 349 l 600 349 l 600 229 q 561 97 600 151 q 462 14 522 42 q 339 -14 401 -14 z "},"č":{"ha":663,"x_min":61,"x_max":601,"o":"m 339 -14 q 210 14 274 -14 q 103 97 146 42 q 61 229 61 151 l 61 688 q 103 820 61 765 q 210 903 146 875 q 339 931 274 931 q 463 903 403 931 q 563 820 524 875 q 601 688 601 765 l 601 574 l 467 574 l 467 706 q 426 794 467 763 q 336 825 386 825 q 240 794 282 825 q 197 704 197 763 l 197 214 q 239 123 197 154 q 336 92 281 92 q 425 123 385 92 q 465 211 465 154 l 465 349 l 600 349 l 600 229 q 561 97 600 151 q 462 14 522 42 q 339 -14 401 -14 z "},"ç":{"ha":663,"x_min":61,"x_max":601,"o":"m 222 -225 q 320 -215 292 -225 q 357 -182 349 -204 q 360 -169 360 -174 q 323 -121 360 -143 q 224 -92 286 -99 l 265 -6 q 120 76 179 15 q 61 229 61 136 l 61 688 q 103 820 61 765 q 210 903 146 875 q 339 931 274 931 q 463 903 403 931 q 563 820 524 875 q 601 688 601 765 l 601 574 l 467 574 l 467 706 q 426 794 467 763 q 336 825 386 825 q 240 794 282 825 q 197 704 197 763 l 197 214 q 239 123 197 154 q 336 92 281 92 q 425 123 385 92 q 465 211 465 154 l 465 349 l 600 349 l 600 229 q 535 65 600 126 q 381 -11 471 3 l 358 -54 q 447 -105 417 -69 q 476 -185 476 -140 q 467 -235 476 -214 q 395 -309 447 -283 q 265 -335 343 -335 q 181 -328 232 -335 l 181 -224 l 222 -225 z "},"ċ":{"ha":663,"x_min":61,"x_max":601,"o":"m 339 -14 q 210 14 274 -14 q 103 97 146 42 q 61 229 61 151 l 61 688 q 103 820 61 765 q 210 903 146 875 q 339 931 274 931 q 463 903 403 931 q 563 820 524 875 q 601 688 601 765 l 601 574 l 467 574 l 467 706 q 426 794 467 763 q 336 825 386 825 q 240 794 282 825 q 197 704 197 763 l 197 214 q 239 123 197 154 q 336 92 281 92 q 425 123 385 92 q 465 211 465 154 l 465 349 l 600 349 l 600 229 q 561 97 600 151 q 462 14 522 42 q 339 -14 401 -14 z "},"ð":{"ha":775,"x_min":61,"x_max":719,"o":"m 185 394 l 61 394 l 61 515 l 185 515 l 185 917 l 443 917 q 572 889 508 917 q 678 806 636 861 q 719 674 719 751 l 719 243 q 678 110 719 165 q 572 28 636 56 q 443 0 508 0 l 185 0 l 185 394 m 439 106 q 539 140 496 106 q 582 239 582 175 l 582 679 q 540 777 582 743 q 439 811 497 811 l 318 811 l 318 515 l 481 515 l 481 394 l 318 394 l 318 107 l 439 106 z "},"ď":{"ha":658,"x_min":61,"x_max":596,"o":"m 61 917 l 319 917 q 449 889 385 917 q 554 806 513 861 q 596 674 596 751 l 596 243 q 554 110 596 165 q 449 28 513 56 q 319 0 385 0 l 61 0 l 61 917 m 315 106 q 415 140 372 106 q 458 239 458 175 l 458 679 q 416 777 458 743 q 315 811 374 811 l 194 811 l 194 107 l 315 106 z "},"đ":{"ha":775,"x_min":61,"x_max":719,"o":"m 185 394 l 61 394 l 61 515 l 185 515 l 185 917 l 443 917 q 572 889 508 917 q 678 806 636 861 q 719 674 719 751 l 719 243 q 678 110 719 165 q 572 28 636 56 q 443 0 508 0 l 185 0 l 185 394 m 439 106 q 539 140 496 106 q 582 239 582 175 l 582 679 q 540 777 582 743 q 439 811 497 811 l 318 811 l 318 515 l 481 515 l 481 394 l 318 394 l 318 107 l 439 106 z "},"é":{"ha":567,"x_min":61,"x_max":506,"o":"m 61 917 l 506 917 l 506 778 l 172 778 l 172 524 l 490 524 l 490 393 l 172 393 l 172 135 l 506 135 l 506 0 l 61 0 l 61 917 z "},"ě":{"ha":567,"x_min":61,"x_max":506,"o":"m 61 917 l 506 917 l 506 778 l 172 778 l 172 524 l 490 524 l 490 393 l 172 393 l 172 135 l 506 135 l 506 0 l 61 0 l 61 917 z "},"ê":{"ha":567,"x_min":61,"x_max":506,"o":"m 61 917 l 506 917 l 506 778 l 172 778 l 172 524 l 490 524 l 490 393 l 172 393 l 172 135 l 506 135 l 506 0 l 61 0 l 61 917 z "},"ë":{"ha":567,"x_min":61,"x_max":506,"o":"m 61 917 l 506 917 l 506 778 l 172 778 l 172 524 l 490 524 l 490 393 l 172 393 l 172 135 l 506 135 l 506 0 l 61 0 l 61 917 m 192 972 q 140 993 161 972 q 119 1043 119 1014 q 140 1092 119 1071 q 192 1114 161 1114 q 242 1092 222 1114 q 263 1043 263 1071 q 241 993 263 1014 q 192 972 219 972 m 289 1044 q 310 1093 289 1071 q 360 1115 331 1115 q 412 1094 392 1115 q 432 1044 432 1072 q 410 994 432 1015 q 360 972 388 972 q 310 994 331 972 q 289 1044 289 1015 z "},"ė":{"ha":567,"x_min":61,"x_max":506,"o":"m 61 917 l 506 917 l 506 778 l 172 778 l 172 524 l 490 524 l 490 393 l 172 393 l 172 135 l 506 135 l 506 0 l 61 0 l 61 917 z "},"è":{"ha":567,"x_min":61,"x_max":506,"o":"m 61 917 l 506 917 l 506 778 l 172 778 l 172 524 l 490 524 l 490 393 l 172 393 l 172 135 l 506 135 l 506 0 l 61 0 l 61 917 z "},"ē":{"ha":567,"x_min":61,"x_max":508,"o":"m 61 917 l 506 917 l 506 778 l 172 778 l 172 524 l 490 524 l 490 393 l 172 393 l 172 135 l 506 135 l 506 0 l 61 0 l 61 917 z "},"ę":{"ha":567,"x_min":61,"x_max":522,"o":"m 61 917 l 506 917 l 506 778 l 172 778 l 172 524 l 490 524 l 490 393 l 172 393 l 172 135 l 506 135 l 506 0 l 450 0 l 451 -10 q 358 -46 389 -21 q 326 -100 326 -71 q 345 -140 326 -125 q 397 -154 364 -154 q 493 -132 439 -154 l 522 -210 q 374 -256 444 -256 q 281 -231 321 -256 q 221 -164 240 -206 q 208 -106 208 -137 q 251 0 208 -44 l 61 0 l 61 917 z "},"ğ":{"ha":663,"x_min":61,"x_max":601,"o":"m 313 -11 q 191 16 249 -11 q 97 97 133 43 q 61 229 61 151 l 61 688 q 101 820 61 765 q 204 903 140 875 q 339 931 268 931 q 468 903 408 931 q 565 820 528 875 q 601 688 601 765 l 601 603 l 467 603 l 467 703 q 428 794 467 763 q 336 825 390 825 q 236 794 276 825 q 196 701 196 763 l 196 221 q 238 129 196 161 q 336 97 281 97 q 426 128 386 97 q 467 218 467 160 l 467 385 l 396 385 l 396 506 l 601 506 l 601 0 l 483 0 l 483 81 q 313 -11 431 -11 z "},"ģ":{"ha":663,"x_min":61,"x_max":601,"o":"m 265 990 l 350 1203 l 472 1203 l 388 990 l 265 990 m 313 -11 q 191 16 249 -11 q 97 97 133 43 q 61 229 61 151 l 61 688 q 101 820 61 765 q 204 903 140 875 q 339 931 268 931 q 468 903 408 931 q 565 820 528 875 q 601 688 601 765 l 601 603 l 467 603 l 467 703 q 428 794 467 763 q 336 825 390 825 q 236 794 276 825 q 196 701 196 763 l 196 221 q 238 129 196 161 q 336 97 281 97 q 426 128 386 97 q 467 218 467 160 l 467 385 l 396 385 l 396 506 l 601 506 l 601 0 l 483 0 l 483 81 q 313 -11 431 -11 z "},"ġ":{"ha":663,"x_min":61,"x_max":601,"o":"m 313 -11 q 191 16 249 -11 q 97 97 133 43 q 61 229 61 151 l 61 688 q 101 820 61 765 q 204 903 140 875 q 339 931 268 931 q 468 903 408 931 q 565 820 528 875 q 601 688 601 765 l 601 603 l 467 603 l 467 703 q 428 794 467 763 q 336 825 390 825 q 236 794 276 825 q 196 701 196 763 l 196 221 q 238 129 196 161 q 336 97 281 97 q 426 128 386 97 q 467 218 467 160 l 467 385 l 396 385 l 396 506 l 601 506 l 601 0 l 483 0 l 483 81 q 313 -11 431 -11 z "},"ħ":{"ha":825,"x_min":57,"x_max":768,"o":"m 165 717 l 57 717 l 57 838 l 165 838 l 165 917 l 299 917 l 299 838 l 556 838 l 556 917 l 688 917 l 688 838 l 768 838 l 768 717 l 688 717 l 688 0 l 556 0 l 556 400 l 299 400 l 299 0 l 165 0 l 165 717 m 556 522 l 556 717 l 299 717 l 299 522 l 556 522 z "},"ı":{"ha":246,"x_min":61,"x_max":185,"o":"m 61 783 l 185 783 l 185 0 l 61 0 l 61 783 z "},"í":{"ha":331,"x_min":63,"x_max":269,"o":"m 63 783 l 186 783 l 186 0 l 63 0 l 63 783 z "},"î":{"ha":482,"x_min":61,"x_max":421,"o":"m 186 783 l 310 783 l 310 0 l 186 0 l 186 783 z "},"ï":{"ha":342,"x_min":24,"x_max":336,"o":"m 118 783 l 242 783 l 242 0 l 118 0 l 118 783 m 96 835 q 44 856 65 835 q 24 906 24 876 q 44 955 24 933 q 96 976 65 976 q 147 955 126 976 q 167 906 167 933 q 145 856 167 876 q 96 835 124 835 m 193 907 q 214 956 193 933 q 264 978 235 978 q 316 956 296 978 q 336 907 336 935 q 314 856 336 878 q 264 835 292 835 q 214 856 235 835 q 193 907 193 878 z "},"ì":{"ha":301,"x_min":29,"x_max":240,"o":"m 117 783 l 240 783 l 240 0 l 117 0 l 117 783 z "},"ī":{"ha":563,"x_min":86,"x_max":526,"o":"m 231 783 l 354 783 l 354 0 l 231 0 l 231 783 z "},"į":{"ha":439,"x_min":61,"x_max":376,"o":"m 376 -196 q 228 -242 299 -242 q 135 -217 175 -242 q 75 -150 94 -192 q 61 -90 61 -119 q 93 0 61 -43 q 186 67 125 43 l 186 783 l 310 783 l 310 0 l 286 0 q 207 -36 233 -12 q 181 -86 181 -60 q 199 -126 181 -111 q 251 -140 218 -140 q 347 -118 293 -140 l 376 -196 z "},"ķ":{"ha":626,"x_min":61,"x_max":564,"o":"m 61 917 l 193 917 l 193 503 l 208 503 l 394 917 l 558 917 l 283 458 l 564 0 l 400 0 l 208 411 l 193 411 l 193 0 l 61 0 l 61 917 z "},"ĺ":{"ha":499,"x_min":61,"x_max":438,"o":"m 61 917 l 193 917 l 193 119 l 438 119 l 438 0 l 61 0 l 61 917 z "},"ľ":{"ha":543,"x_min":100,"x_max":483,"o":"m 107 917 l 239 917 l 239 119 l 483 119 l 483 0 l 107 0 l 107 917 z "},"ļ":{"ha":510,"x_min":74,"x_max":450,"o":"m 74 917 l 206 917 l 206 119 l 450 119 l 450 0 l 74 0 l 74 917 z "},"ł":{"ha":607,"x_min":61,"x_max":547,"o":"m 171 411 l 117 386 l 61 504 l 171 556 l 171 917 l 303 917 l 303 617 l 408 665 l 463 546 l 303 472 l 303 119 l 547 119 l 547 0 l 171 0 l 171 411 z "},"ń":{"ha":725,"x_min":61,"x_max":664,"o":"m 61 917 l 260 917 l 513 189 l 532 189 l 532 917 l 664 917 l 664 0 l 467 0 l 215 706 l 194 706 l 194 0 l 61 0 l 61 917 z "},"ň":{"ha":725,"x_min":61,"x_max":664,"o":"m 61 917 l 260 917 l 513 189 l 532 189 l 532 917 l 664 917 l 664 0 l 467 0 l 215 706 l 194 706 l 194 0 l 61 0 l 61 917 z "},"ņ":{"ha":725,"x_min":61,"x_max":664,"o":"m 61 917 l 260 917 l 513 189 l 532 189 l 532 917 l 664 917 l 664 0 l 467 0 l 215 706 l 194 706 l 194 0 l 61 0 l 61 917 z "},"ñ":{"ha":725,"x_min":61,"x_max":664,"o":"m 61 917 l 260 917 l 513 189 l 532 189 l 532 917 l 664 917 l 664 0 l 467 0 l 215 706 l 194 706 l 194 0 l 61 0 l 61 917 z "},"ŋ":{"ha":769,"x_min":61,"x_max":640,"o":"m 363 -122 q 476 -91 431 -122 q 522 0 521 -60 l 481 0 l 203 664 l 182 664 l 182 0 l 61 0 l 61 917 l 222 917 l 500 225 l 519 225 l 519 917 l 640 917 l 640 0 q 571 -165 639 -101 q 396 -228 503 -228 q 363 -226 374 -228 l 363 -122 z "},"ó":{"ha":664,"x_min":61,"x_max":601,"o":"m 339 -14 q 202 13 265 -14 q 100 95 139 40 q 61 229 61 150 l 61 688 q 99 822 61 767 q 200 903 138 876 q 336 931 263 931 q 467 903 407 931 q 565 822 528 876 q 601 688 601 767 l 601 229 q 565 95 601 150 q 469 13 529 40 q 339 -14 410 -14 m 196 215 q 233 122 196 153 q 336 92 271 92 q 432 122 396 92 q 468 213 468 151 l 468 703 q 431 794 468 764 q 335 825 394 825 q 233 794 269 825 q 196 701 196 764 l 196 215 z "},"ô":{"ha":664,"x_min":61,"x_max":601,"o":"m 339 -14 q 202 13 265 -14 q 100 95 139 40 q 61 229 61 150 l 61 688 q 99 822 61 767 q 200 903 138 876 q 336 931 263 931 q 467 903 407 931 q 565 822 528 876 q 601 688 601 767 l 601 229 q 565 95 601 150 q 469 13 529 40 q 339 -14 410 -14 m 196 215 q 233 122 196 153 q 336 92 271 92 q 432 122 396 92 q 468 213 468 151 l 468 703 q 431 794 468 764 q 335 825 394 825 q 233 794 269 825 q 196 701 196 764 l 196 215 z "},"ö":{"ha":664,"x_min":61,"x_max":601,"o":"m 339 -14 q 202 13 265 -14 q 100 95 139 40 q 61 229 61 150 l 61 688 q 99 822 61 767 q 200 903 138 876 q 336 931 263 931 q 467 903 407 931 q 565 822 528 876 q 601 688 601 767 l 601 229 q 565 95 601 150 q 469 13 529 40 q 339 -14 410 -14 m 196 215 q 233 122 196 153 q 336 92 271 92 q 432 122 396 92 q 468 213 468 151 l 468 703 q 431 794 468 764 q 335 825 394 825 q 233 794 269 825 q 196 701 196 764 l 196 215 m 254 992 q 203 1013 224 992 q 182 1063 182 1033 q 203 1112 182 1090 q 254 1133 224 1133 q 305 1112 285 1133 q 325 1063 325 1090 q 303 1013 325 1033 q 254 992 282 992 m 351 1064 q 372 1113 351 1090 q 422 1135 393 1135 q 474 1113 454 1135 q 494 1064 494 1092 q 472 1013 494 1035 q 422 992 450 992 q 372 1013 393 992 q 351 1064 351 1035 z "},"ò":{"ha":664,"x_min":61,"x_max":601,"o":"m 339 -14 q 202 13 265 -14 q 100 95 139 40 q 61 229 61 150 l 61 688 q 99 822 61 767 q 200 903 138 876 q 336 931 263 931 q 467 903 407 931 q 565 822 528 876 q 601 688 601 767 l 601 229 q 565 95 601 150 q 469 13 529 40 q 339 -14 410 -14 m 196 215 q 233 122 196 153 q 336 92 271 92 q 432 122 396 92 q 468 213 468 151 l 468 703 q 431 794 468 764 q 335 825 394 825 q 233 794 269 825 q 196 701 196 764 l 196 215 z "},"ő":{"ha":664,"x_min":61,"x_max":601,"o":"m 339 -14 q 202 13 265 -14 q 100 95 139 40 q 61 229 61 150 l 61 688 q 99 822 61 767 q 200 903 138 876 q 336 931 263 931 q 467 903 407 931 q 565 822 528 876 q 601 688 601 767 l 601 229 q 565 95 601 150 q 469 13 529 40 q 339 -14 410 -14 m 196 215 q 233 122 196 153 q 336 92 271 92 q 432 122 396 92 q 468 213 468 151 l 468 703 q 431 794 468 764 q 335 825 394 825 q 233 794 269 825 q 196 701 196 764 l 196 215 z "},"ō":{"ha":664,"x_min":61,"x_max":601,"o":"m 339 -14 q 202 13 265 -14 q 100 95 139 40 q 61 229 61 150 l 61 688 q 99 822 61 767 q 200 903 138 876 q 336 931 263 931 q 467 903 407 931 q 565 822 528 876 q 601 688 601 767 l 601 229 q 565 95 601 150 q 469 13 529 40 q 339 -14 410 -14 m 196 215 q 233 122 196 153 q 336 92 271 92 q 432 122 396 92 q 468 213 468 151 l 468 703 q 431 794 468 764 q 335 825 394 825 q 233 794 269 825 q 196 701 196 764 l 196 215 z "},"ø":{"ha":718,"x_min":61,"x_max":657,"o":"m 339 -14 q 276 -8 304 -14 l 233 -125 l 92 -125 l 153 42 q 85 119 110 72 q 61 229 61 167 l 61 688 q 99 822 61 767 q 200 903 138 876 q 336 931 263 931 q 472 901 413 931 l 515 1015 l 657 1015 l 576 800 q 601 688 601 753 l 601 229 q 565 95 601 150 q 469 13 529 40 q 339 -14 410 -14 m 196 215 q 201 171 196 189 l 433 793 q 335 825 397 825 q 233 794 269 825 q 196 701 196 764 l 196 215 m 314 93 q 336 92 321 92 q 432 122 396 92 q 468 213 468 151 l 468 507 l 314 93 z "},"õ":{"ha":664,"x_min":61,"x_max":601,"o":"m 339 -14 q 202 13 265 -14 q 100 95 139 40 q 61 229 61 150 l 61 688 q 99 822 61 767 q 200 903 138 876 q 336 931 263 931 q 467 903 407 931 q 565 822 528 876 q 601 688 601 767 l 601 229 q 565 95 601 150 q 469 13 529 40 q 339 -14 410 -14 m 196 215 q 233 122 196 153 q 336 92 271 92 q 432 122 396 92 q 468 213 468 151 l 468 703 q 431 794 468 764 q 335 825 394 825 q 233 794 269 825 q 196 701 196 764 l 196 215 z "},"œ":{"ha":988,"x_min":61,"x_max":926,"o":"m 339 -14 q 202 13 265 -14 q 100 95 139 40 q 61 229 61 150 l 61 688 q 99 822 61 767 q 200 903 138 876 q 336 931 263 931 q 482 896 418 931 l 482 924 l 926 924 l 926 785 l 593 785 l 593 757 q 601 688 601 726 l 601 531 l 911 531 l 911 400 l 601 400 l 601 229 q 593 160 601 192 l 593 142 l 926 142 l 926 7 l 482 7 l 482 19 q 339 -14 419 -14 m 196 215 q 233 122 196 153 q 336 92 271 92 q 432 122 396 92 q 468 213 468 151 l 468 703 q 431 794 468 764 q 335 825 394 825 q 233 794 269 825 q 196 701 196 764 l 196 215 z "},"þ":{"ha":665,"x_min":61,"x_max":603,"o":"m 61 965 l 185 965 l 185 774 q 251 813 211 800 q 336 826 290 826 q 528 763 454 826 q 603 583 603 700 l 603 375 q 529 195 603 258 q 339 132 456 132 q 253 146 293 132 q 185 186 213 160 l 185 -22 l 61 -22 l 61 965 m 185 381 q 226 285 186 317 q 339 254 267 254 q 444 288 406 254 q 482 385 482 321 l 482 574 q 443 671 482 638 q 336 704 404 704 q 225 673 264 704 q 185 578 186 642 l 185 381 z "},"ŕ":{"ha":658,"x_min":61,"x_max":594,"o":"m 211 964 l 296 1176 l 418 1176 l 333 964 l 211 964 m 61 917 l 351 917 q 533 847 472 917 q 594 658 593 778 q 499 447 592 497 q 589 251 589 400 l 589 0 l 453 0 l 453 231 q 427 337 453 299 q 326 375 401 375 l 194 375 l 194 0 l 61 0 l 61 917 m 325 482 q 427 520 401 481 q 453 642 453 560 q 427 771 453 731 q 331 811 401 811 l 193 810 l 193 483 l 325 482 z "},"ř":{"ha":657,"x_min":61,"x_max":594,"o":"m 61 917 l 351 917 q 533 847 472 917 q 594 658 593 778 q 499 447 592 497 q 589 251 589 400 l 589 0 l 453 0 l 453 231 q 427 337 453 299 q 326 375 401 375 l 194 375 l 194 0 l 61 0 l 61 917 m 325 482 q 427 520 401 481 q 453 642 453 560 q 427 771 453 731 q 331 811 401 811 l 193 810 l 193 483 l 325 482 z "},"ŗ":{"ha":657,"x_min":61,"x_max":594,"o":"m 61 917 l 351 917 q 533 847 472 917 q 594 658 593 778 q 499 447 592 497 q 589 251 589 400 l 589 0 l 453 0 l 453 231 q 427 337 453 299 q 326 375 401 375 l 194 375 l 194 0 l 61 0 l 61 917 m 325 482 q 427 520 401 481 q 453 642 453 560 q 427 771 453 731 q 331 811 401 811 l 193 810 l 193 483 l 325 482 z "},"ś":{"ha":668,"x_min":61,"x_max":606,"o":"m 340 -14 q 208 15 269 -14 q 108 100 146 44 q 71 229 71 156 l 71 297 l 204 297 l 204 211 q 247 124 204 157 q 343 92 289 92 q 474 204 474 92 l 474 263 q 431 359 474 325 q 325 401 389 393 q 140 467 218 411 q 61 633 61 522 l 61 692 q 99 824 61 769 q 196 904 136 878 q 325 931 256 931 q 451 903 390 931 q 550 820 511 875 q 589 688 589 765 l 589 614 l 457 614 l 457 704 q 417 794 457 763 q 325 825 376 825 q 231 797 267 825 q 194 707 194 768 l 194 650 q 238 552 194 583 q 354 511 282 521 q 532 446 458 501 q 606 283 606 390 l 606 221 q 529 47 606 107 q 340 -14 453 -14 z "},"š":{"ha":668,"x_min":61,"x_max":606,"o":"m 340 -14 q 208 15 269 -14 q 108 100 146 44 q 71 229 71 156 l 71 297 l 204 297 l 204 211 q 247 124 204 157 q 343 92 289 92 q 474 204 474 92 l 474 263 q 431 359 474 325 q 325 401 389 393 q 140 467 218 411 q 61 633 61 522 l 61 692 q 99 824 61 769 q 196 904 136 878 q 325 931 256 931 q 451 903 390 931 q 550 820 511 875 q 589 688 589 765 l 589 614 l 457 614 l 457 704 q 417 794 457 763 q 325 825 376 825 q 231 797 267 825 q 194 707 194 768 l 194 650 q 238 552 194 583 q 354 511 282 521 q 532 446 458 501 q 606 283 606 390 l 606 221 q 529 47 606 107 q 340 -14 453 -14 z "},"ş":{"ha":668,"x_min":61,"x_max":606,"o":"m 229 -210 q 327 -199 299 -210 q 364 -167 356 -189 q 367 -154 367 -158 q 330 -106 367 -128 q 231 -76 293 -83 l 265 -6 q 126 77 181 15 q 71 229 71 139 l 71 297 l 204 297 l 204 211 q 247 124 204 157 q 343 92 289 92 q 474 204 474 92 l 474 263 q 431 359 474 325 q 325 401 389 393 q 140 467 218 411 q 61 633 61 522 l 61 692 q 99 824 61 769 q 196 904 136 878 q 325 931 256 931 q 451 903 390 931 q 550 820 511 875 q 589 688 589 765 l 589 614 l 457 614 l 457 704 q 417 794 457 763 q 325 825 376 825 q 231 797 267 825 q 194 707 194 768 l 194 650 q 238 552 194 583 q 354 511 282 521 q 532 446 458 501 q 606 283 606 390 l 606 221 q 542 58 606 117 q 379 -12 478 -1 l 365 -39 q 453 -90 424 -54 q 483 -169 483 -125 q 474 -219 483 -199 q 402 -294 454 -268 q 272 -319 350 -319 q 188 -312 239 -319 l 188 -208 l 229 -210 z "},"ș":{"ha":668,"x_min":61,"x_max":606,"o":"m 340 -14 q 208 15 269 -14 q 108 100 146 44 q 71 229 71 156 l 71 297 l 204 297 l 204 211 q 247 124 204 157 q 343 92 289 92 q 474 204 474 92 l 474 263 q 431 359 474 325 q 325 401 389 393 q 140 467 218 411 q 61 633 61 522 l 61 692 q 99 824 61 769 q 196 904 136 878 q 325 931 256 931 q 451 903 390 931 q 550 820 511 875 q 589 688 589 765 l 589 614 l 457 614 l 457 704 q 417 794 457 763 q 325 825 376 825 q 231 797 267 825 q 194 707 194 768 l 194 650 q 238 552 194 583 q 354 511 282 521 q 532 446 458 501 q 606 283 606 390 l 606 221 q 529 47 606 107 q 340 -14 453 -14 z "},"ß":{"ha":611,"x_min":61,"x_max":550,"o":"m 63 665 q 124 847 63 776 q 294 917 185 917 q 475 842 415 917 q 535 653 535 767 q 514 548 535 597 q 451 468 493 499 q 526 382 501 438 q 550 256 550 326 q 522 129 550 188 q 440 35 494 71 q 308 0 386 0 l 281 0 l 281 121 l 308 121 q 400 158 371 121 q 429 256 429 196 q 399 365 429 331 q 297 399 369 399 l 281 399 l 281 522 l 292 522 q 383 558 354 522 q 413 653 413 594 q 387 762 413 728 q 292 796 361 796 q 210 758 238 796 q 183 653 183 721 l 185 0 l 61 0 l 63 665 z "},"ŧ":{"ha":650,"x_min":61,"x_max":589,"o":"m 260 376 l 168 376 l 168 497 l 260 497 l 260 779 l 61 779 l 61 917 l 589 917 l 589 779 l 392 779 l 392 497 l 494 497 l 494 376 l 392 376 l 392 0 l 260 0 l 260 376 z "},"ť":{"ha":650,"x_min":61,"x_max":589,"o":"m 260 779 l 61 779 l 61 917 l 589 917 l 589 779 l 392 779 l 392 0 l 260 0 l 260 779 z "},"ţ":{"ha":650,"x_min":61,"x_max":589,"o":"m 203 -207 q 301 -197 272 -207 q 338 -164 329 -186 q 340 -151 340 -156 q 303 -103 340 -125 q 204 -74 267 -81 l 260 42 l 260 779 l 61 779 l 61 917 l 589 917 l 589 779 l 392 779 l 392 0 l 357 0 l 339 -36 q 427 -87 397 -51 q 457 -167 457 -122 q 447 -217 457 -196 q 376 -291 428 -265 q 246 -317 324 -317 q 161 -310 213 -317 l 161 -206 l 203 -207 z "},"ț":{"ha":650,"x_min":61,"x_max":589,"o":"m 260 779 l 61 779 l 61 917 l 589 917 l 589 779 l 392 779 l 392 0 l 260 0 l 260 779 z "},"ú":{"ha":661,"x_min":61,"x_max":600,"o":"m 335 -14 q 203 15 267 -14 q 101 99 140 43 q 61 232 61 154 l 61 917 l 193 917 l 193 213 q 233 119 193 150 q 333 89 272 89 q 427 119 389 89 q 465 210 465 150 l 464 917 l 599 917 l 600 229 q 562 97 600 151 q 463 14 524 42 q 335 -14 401 -14 z "},"û":{"ha":661,"x_min":61,"x_max":600,"o":"m 335 -14 q 203 15 267 -14 q 101 99 140 43 q 61 232 61 154 l 61 917 l 193 917 l 193 213 q 233 119 193 150 q 333 89 272 89 q 427 119 389 89 q 465 210 465 150 l 464 917 l 599 917 l 600 229 q 562 97 600 151 q 463 14 524 42 q 335 -14 401 -14 z "},"ü":{"ha":661,"x_min":61,"x_max":600,"o":"m 335 -14 q 203 15 267 -14 q 101 99 140 43 q 61 232 61 154 l 61 917 l 193 917 l 193 213 q 233 119 193 150 q 333 89 272 89 q 427 119 389 89 q 465 210 465 150 l 464 917 l 599 917 l 600 229 q 562 97 600 151 q 463 14 524 42 q 335 -14 401 -14 m 225 967 q 174 988 194 967 q 153 1038 153 1008 q 174 1087 153 1065 q 225 1108 194 1108 q 276 1087 256 1108 q 296 1038 296 1065 q 274 988 296 1008 q 225 967 253 967 m 322 1039 q 343 1088 322 1065 q 393 1110 364 1110 q 445 1088 425 1110 q 465 1039 465 1067 q 443 988 465 1010 q 393 967 421 967 q 343 988 364 967 q 322 1039 322 1010 z "},"ù":{"ha":661,"x_min":61,"x_max":600,"o":"m 335 -14 q 203 15 267 -14 q 101 99 140 43 q 61 232 61 154 l 61 917 l 193 917 l 193 213 q 233 119 193 150 q 333 89 272 89 q 427 119 389 89 q 465 210 465 150 l 464 917 l 599 917 l 600 229 q 562 97 600 151 q 463 14 524 42 q 335 -14 401 -14 z "},"ű":{"ha":661,"x_min":61,"x_max":600,"o":"m 335 -14 q 203 15 267 -14 q 101 99 140 43 q 61 232 61 154 l 61 917 l 193 917 l 193 213 q 233 119 193 150 q 333 89 272 89 q 427 119 389 89 q 465 210 465 150 l 464 917 l 599 917 l 600 229 q 562 97 600 151 q 463 14 524 42 q 335 -14 401 -14 z "},"ū":{"ha":661,"x_min":61,"x_max":600,"o":"m 335 -14 q 203 15 267 -14 q 101 99 140 43 q 61 232 61 154 l 61 917 l 193 917 l 193 213 q 233 119 193 150 q 333 89 272 89 q 427 119 389 89 q 465 210 465 150 l 464 917 l 599 917 l 600 229 q 562 97 600 151 q 463 14 524 42 q 335 -14 401 -14 z "},"ų":{"ha":661,"x_min":61,"x_max":600,"o":"m 500 -192 q 351 -237 422 -237 q 258 -212 299 -237 q 199 -146 218 -187 q 185 -86 185 -115 q 219 8 185 -35 q 105 92 149 35 q 61 232 61 150 l 61 917 l 193 917 l 193 213 q 233 119 193 150 q 333 89 272 89 q 427 119 389 89 q 465 210 465 150 l 464 917 l 599 917 l 600 229 q 567 104 600 157 q 478 22 533 51 q 361 -12 424 -7 q 318 -44 332 -26 q 304 -82 304 -62 q 323 -122 304 -107 q 375 -136 342 -136 q 471 -114 417 -136 l 500 -192 z "},"ů":{"ha":661,"x_min":61,"x_max":600,"o":"m 335 -14 q 203 15 267 -14 q 101 99 140 43 q 61 232 61 154 l 61 917 l 193 917 l 193 213 q 233 119 193 150 q 333 89 272 89 q 427 119 389 89 q 465 210 465 150 l 464 917 l 599 917 l 600 229 q 562 97 600 151 q 463 14 524 42 q 335 -14 401 -14 z "},"ẃ":{"ha":1060,"x_min":44,"x_max":1007,"o":"m 44 917 l 185 917 l 310 131 l 340 131 l 458 917 l 604 917 l 710 131 l 742 131 l 868 917 l 1007 917 l 824 0 l 639 0 l 529 675 l 413 0 l 228 0 l 44 917 z "},"ŵ":{"ha":1060,"x_min":44,"x_max":1007,"o":"m 44 917 l 185 917 l 310 131 l 340 131 l 458 917 l 604 917 l 710 131 l 742 131 l 868 917 l 1007 917 l 824 0 l 639 0 l 529 675 l 413 0 l 228 0 l 44 917 z "},"ẅ":{"ha":1060,"x_min":44,"x_max":1007,"o":"m 44 917 l 185 917 l 310 131 l 340 131 l 458 917 l 604 917 l 710 131 l 742 131 l 868 917 l 1007 917 l 824 0 l 639 0 l 529 675 l 413 0 l 228 0 l 44 917 m 456 969 q 404 990 425 969 q 383 1040 383 1011 q 404 1090 383 1068 q 456 1111 425 1111 q 506 1090 486 1111 q 526 1040 526 1068 q 505 990 526 1011 q 456 969 483 969 m 553 1042 q 574 1090 553 1068 q 624 1113 594 1113 q 676 1091 656 1113 q 696 1042 696 1069 q 674 991 696 1013 q 624 969 651 969 q 574 991 594 969 q 553 1042 553 1013 z "},"ẁ":{"ha":1060,"x_min":44,"x_max":1007,"o":"m 44 917 l 185 917 l 310 131 l 340 131 l 458 917 l 604 917 l 710 131 l 742 131 l 868 917 l 1007 917 l 824 0 l 639 0 l 529 675 l 413 0 l 228 0 l 44 917 z "},"ý":{"ha":731,"x_min":61,"x_max":668,"o":"m 307 431 l 61 917 l 222 917 l 371 507 l 385 507 l 521 917 l 668 917 l 440 432 l 440 0 l 308 0 l 307 431 z "},"ŷ":{"ha":731,"x_min":61,"x_max":668,"o":"m 307 431 l 61 917 l 222 917 l 371 507 l 385 507 l 521 917 l 668 917 l 440 432 l 440 0 l 308 0 l 307 431 z "},"ÿ":{"ha":731,"x_min":61,"x_max":668,"o":"m 307 431 l 61 917 l 222 917 l 371 507 l 385 507 l 521 917 l 668 917 l 440 432 l 440 0 l 308 0 l 307 431 m 294 961 q 243 982 264 961 q 222 1032 222 1003 q 243 1081 222 1060 q 294 1103 264 1103 q 345 1081 325 1103 q 365 1032 365 1060 q 344 982 365 1003 q 294 961 322 961 m 392 1033 q 413 1082 392 1060 q 463 1104 433 1104 q 515 1083 494 1104 q 535 1033 535 1061 q 513 983 535 1004 q 463 961 490 961 q 413 983 433 961 q 392 1033 392 1004 z "},"ỳ":{"ha":731,"x_min":61,"x_max":668,"o":"m 307 431 l 61 917 l 222 917 l 371 507 l 385 507 l 521 917 l 668 917 l 440 432 l 440 0 l 308 0 l 307 431 z "},"ź":{"ha":650,"x_min":61,"x_max":589,"o":"m 63 92 l 436 781 l 61 781 l 61 917 l 589 917 l 589 811 l 214 121 l 579 121 l 578 0 l 63 0 l 63 92 z "},"ž":{"ha":650,"x_min":61,"x_max":589,"o":"m 63 92 l 436 781 l 61 781 l 61 917 l 589 917 l 589 811 l 214 121 l 579 121 l 578 0 l 63 0 l 63 92 z "},"ż":{"ha":650,"x_min":61,"x_max":589,"o":"m 63 92 l 436 781 l 61 781 l 61 917 l 589 917 l 589 811 l 214 121 l 579 121 l 578 0 l 63 0 l 63 92 z "},"μ":{"ha":847,"x_min":61,"x_max":786,"o":"m 63 704 l 185 704 l 185 249 q 228 145 185 182 q 339 108 271 108 q 441 145 400 108 q 482 246 482 182 l 482 704 l 607 704 l 606 253 q 652 142 606 181 q 786 107 699 103 l 786 -12 q 543 79 608 -12 q 456 11 511 35 q 340 -12 401 -12 q 253 2 296 -12 q 183 44 211 17 l 183 -131 l 61 -131 l 63 704 z "},"̈":{"ha":0,"x_min":61,"x_max":374,"o":"m 133 731 q 82 751 103 731 q 61 801 61 772 q 82 851 61 829 q 133 872 103 872 q 184 851 164 872 q 204 801 204 829 q 183 751 204 772 q 133 731 161 731 m 231 803 q 251 851 231 829 q 301 874 272 874 q 353 852 333 874 q 374 803 374 831 q 351 752 374 774 q 301 731 329 731 q 251 752 272 731 q 231 803 231 774 z "},"̇":{"ha":0,"x_min":61,"x_max":210,"o":"m 135 722 q 83 744 104 722 q 61 796 61 767 q 83 847 61 824 q 135 871 106 871 q 189 848 168 871 q 210 796 210 825 q 188 744 210 767 q 135 722 165 722 z "},"̀":{"ha":0,"x_min":61,"x_max":268,"o":"m 61 900 l 183 900 l 268 688 l 146 688 l 61 900 z "},"́":{"ha":0,"x_min":32,"x_max":239,"o":"m 32 686 l 117 899 l 239 899 l 154 686 l 32 686 z "},"̋":{"ha":0,"x_min":61,"x_max":406,"o":"m 154 900 l 268 900 l 181 656 l 61 656 l 154 900 m 293 900 l 406 900 l 321 656 l 203 656 l 293 900 z "},"̂":{"ha":0,"x_min":61,"x_max":421,"o":"m 246 897 l 421 642 l 293 642 l 242 733 l 188 642 l 61 642 l 246 897 z "},"̌":{"ha":0,"x_min":61,"x_max":421,"o":"m 188 901 l 242 810 l 293 901 l 421 901 l 246 646 l 61 901 l 188 901 z "},"̆":{"ha":0,"x_min":61,"x_max":550,"o":"m 300 725 q 205 746 254 725 q 116 810 156 767 q 61 917 76 853 l 172 917 q 228 853 189 876 q 306 829 267 829 q 381 852 346 829 q 438 917 415 875 l 550 917 q 448 771 515 817 q 300 725 381 725 z "},"̊":{"ha":0,"x_min":61,"x_max":342,"o":"m 201 614 q 99 660 138 614 q 61 763 61 706 q 99 867 61 822 q 203 913 138 913 q 304 867 267 913 q 342 763 342 821 q 303 660 342 706 q 201 614 265 614 m 139 760 q 156 715 139 736 q 201 694 174 694 q 249 715 231 694 q 267 760 267 736 q 249 806 267 786 q 203 826 232 826 q 156 807 172 826 q 139 760 139 788 z "},"̃":{"ha":0,"x_min":61,"x_max":518,"o":"m 61 704 q 117 833 74 792 q 215 874 161 874 q 258 867 238 874 q 304 849 278 861 q 322 841 310 846 q 342 835 333 836 q 369 831 357 831 q 414 876 407 831 l 518 876 q 483 758 513 799 q 410 717 454 717 q 361 723 383 717 q 308 740 339 729 q 289 747 300 743 q 265 754 278 750 q 235 758 251 758 q 194 745 210 758 q 174 704 178 732 l 61 704 z "},"̄":{"ha":0,"x_min":61,"x_max":501,"o":"m 61 915 l 501 915 l 501 792 l 61 792 l 61 915 z "},"̒":{"ha":0,"x_min":61,"x_max":282,"o":"m 151 915 l 282 915 l 192 678 l 61 678 l 151 915 z "},"̦":{"ha":0,"x_min":26,"x_max":233,"o":"m 26 -262 l 111 -50 l 233 -50 l 149 -262 l 26 -262 z "},"̧":{"ha":0,"x_min":61,"x_max":357,"o":"m 103 -57 q 201 -47 172 -57 q 238 -14 229 -36 q 240 -1 240 -6 q 203 47 240 25 q 104 76 167 69 l 169 211 l 289 211 l 239 114 q 327 63 297 99 q 357 -17 357 28 q 347 -67 357 -46 q 276 -141 328 -115 q 146 -167 224 -167 q 61 -160 113 -167 l 61 -56 l 103 -57 z "},"̨":{"ha":0,"x_min":61,"x_max":376,"o":"m 376 -85 q 228 -131 299 -131 q 135 -106 175 -131 q 75 -39 94 -81 q 61 21 61 -8 q 106 126 61 78 q 238 193 150 175 l 297 183 l 306 115 q 212 79 243 104 q 181 25 181 54 q 199 -15 181 0 q 251 -29 218 -29 q 347 -7 293 -29 l 376 -85 z "},"˜":{"ha":581,"x_min":61,"x_max":518,"o":"m 61 704 q 117 833 74 792 q 215 874 161 874 q 258 867 238 874 q 304 849 278 861 q 322 841 310 846 q 342 835 333 836 q 369 831 357 831 q 414 876 407 831 l 518 876 q 483 758 513 799 q 410 717 454 717 q 361 723 383 717 q 308 740 339 729 q 289 747 300 743 q 265 754 278 750 q 235 758 251 758 q 194 745 210 758 q 174 704 178 732 l 61 704 z "}}}
